
        <svg xmlns="http://www.w3.org/2000/svg" xmlns:xlink="http://www.w3.org/1999/xlink" version="1.1" width="3182.9268292682927" 
        height="1280.4878048780488" viewBox="0 0 3182.9268292682927 1280.4878048780488">
			<rect fill="#000000" width="3182.9268292682927" height="1280.4878048780488"/>
			<g transform="scale(9.146341463414634) translate(10, 10)">
				<defs id="SvgjsDefs2174"><linearGradient id="SvgjsLinearGradient2183"><stop id="SvgjsStop2184" stop-color="#8f5e25" offset="0"></stop><stop id="SvgjsStop2185" stop-color="#fbf4a1" offset="0.5"></stop><stop id="SvgjsStop2186" stop-color="#8f5e25" offset="1"></stop></linearGradient><linearGradient id="SvgjsLinearGradient2187"><stop id="SvgjsStop2188" stop-color="#8f5e25" offset="0"></stop><stop id="SvgjsStop2189" stop-color="#fbf4a1" offset="0.5"></stop><stop id="SvgjsStop2190" stop-color="#8f5e25" offset="1"></stop></linearGradient><linearGradient id="SvgjsLinearGradient2191"><stop id="SvgjsStop2192" stop-color="#8f5e25" offset="0"></stop><stop id="SvgjsStop2193" stop-color="#fbf4a1" offset="0.5"></stop><stop id="SvgjsStop2194" stop-color="#8f5e25" offset="1"></stop></linearGradient></defs><g id="SvgjsG2175" featureKey="symbolContainer" transform="matrix(1.7781462955104628,0,0,1.7781462955104628,20.000013083686063,20.007421174705595)" fill="url(#SvgjsLinearGradient2183)"><path xmlns="http://www.w3.org/2000/svg" d="M23.11 55.78L1.69 43.41A3.39 3.39 0 0 1 0 40.48V15.75a3.39 3.39 0 0 1 1.69-2.94L23.11.45a3.39 3.39 0 0 1 3.39 0l21.41 12.37a3.39 3.39 0 0 1 1.69 2.94v24.72a3.39 3.39 0 0 1-1.69 2.94L26.5 55.78a3.39 3.39 0 0 1-3.39 0z"></path></g><g id="SvgjsG2176" featureKey="monogramFeature-0" transform="matrix(1.4730680089856758,0,0,1.4730680089856758,33.74620598839673,13.649072176907069)" fill="#000000"><path d="M38.006 60 c-0.25981 0 -0.52318 -0.066618 -0.76374 -0.20584 l-5.532 -3.2028 c-0.7302 -0.4224 -1.0518 -0.9798 -1.0518 -1.8234 l0 -23.24 c0 -0.8448 0.6852 -1.53 1.53 -1.53 s1.53 0.6852 1.53 1.53 l0 22.69 l2.766 1.599 l0 -33.508 l-4.296 -2.4828 l-10.864 6.2796 c-0.22981 0.13858 -0.49922 0.21838 -0.7872 0.21838 c-0.8448 0 -1.53 -0.6852 -1.53 -1.53 c0 -0.57598 0.31858 -1.0776 0.78894 -1.3386 l11.34 -6.555 c0.36539 -0.21117 0.7092 -0.31676 1.0531 -0.31676 s0.68766 0.10559 1.0531 0.31676 l5.2511 3.0354 c0.7308 0.4224 1.0524 0.9798 1.0524 1.8234 l-0.006621 36.711 c0 0.8256 -0.681 1.5306 -1.533 1.5306 z M8.8854 59.99935548 c-0.28799 0 -0.55799 -0.078048 -0.7878 -0.21662 l-5.5158 -3.1884 c-0.7302 -0.4224 -1.0518 -0.9798 -1.0518 -1.8234 l0 -33.01 c0 -0.8436 0.32162 -1.401 1.0518 -1.8234 l5.5158 -3.1884 c0.23039 -0.13858 0.49981 -0.21838 0.7878 -0.21838 c0.8448 0 1.53 0.6852 1.53 1.53 c0 0.57598 -0.31858 1.0776 -0.78894 1.3386 l-5.037 2.9112 l0 31.909 l5.037 2.9112 c0.47039 0.26098 0.78894 0.7626 0.78894 1.3386 c0 0.8448 -0.6852 1.53 -1.53 1.53 z M14.711 56.6333 c-0.8448 0 -1.5289 -0.68586 -1.5289 -1.5307 l0 -24.289 l-2.766 1.599 l0 19.322 c0 0.8448 -0.6852 1.53 -1.53 1.53 s-1.53 -0.6852 -1.53 -1.53 l0 -19.873 c0 -0.8436 0.32162 -1.401 1.0518 -1.8234 l5.5302 -3.1998 c0.23338 -0.13441 0.49858 -0.20584 0.768 -0.20584 c1.0092 0 1.5283 0.8808 1.5283 1.53 l0.006621 26.939 c0 0.8448 -0.6852 1.53 -1.53 1.53 z M20.53 60.0016992 l0.0046875 0.0012305 c-0.8262 0 -1.5317 -0.6852 -1.5317 -1.5378 l0.03539 -26.404 c0 -0.8442 0.6846 -1.5283 1.5288 -1.5283 c0.8448 0 1.53 0.6852 1.53 1.5318 l-0.025781 23.753 l2.763 -1.5972 l0 -25.725 c0 -0.8436 0.32162 -1.401 1.0524 -1.8234 l5.5158 -3.1884 c0.23039 -0.13858 0.49981 -0.21838 0.7878 -0.21838 c0.8448 0 1.53 0.6852 1.53 1.53 c0 0.57598 -0.31858 1.0776 -0.78894 1.3386 l-5.037 2.9112 l0 25.725 c0 0.8436 -0.32098 1.4015 -1.0517 1.8234 l-5.5446 3.2022 c-0.23338 0.13441 -0.49858 0.20584 -0.768 0.20584 z M8.8914 26.326 c-0.8448 0 -1.53 -0.6852 -1.53 -1.53 c0 -0.57598 0.31858 -1.0776 0.78894 -1.3386 l11.605 -6.708 c0.23039 -0.13858 0.49981 -0.21838 0.7878 -0.21838 c0.8448 0 1.53 0.6852 1.53 1.53 c0 0.57598 -0.31858 1.0776 -0.78894 1.3386 l-11.605 6.708 c-0.23039 0.13858 -0.49981 0.21838 -0.7878 0.21838 z"></path></g><g id="SvgjsG2177" featureKey="nameFeature-0" transform="matrix(0.9009009009009009,0,0,0.9009009009009009,126.1981999165303,37.153153668652784)" fill="url(#SvgjsLinearGradient2187)"><path d="M2 40 l0 -32 l3.6 0 l4.2 20 l0.4 0 l4.2 -20 l3.6 0 l0 32 l-4 0 l0 -16 l-2.84 16 l-2.4 0 l-2.76 -16 l0 16 l-4 0 z M24 40 l0 -16.8 c0 -11.16 0 -15.56 6 -15.56 s6 4.4 6 15.56 l0 16.8 l-4 0 l0 -9.2 l-4 0 l0 9.2 l-4 0 z M28 27.6 l4 0 l0 -4.4 c0 -10.4 0 -12.36 -2 -12.36 s-2 1.96 -2 12.36 l0 4.4 z M42 40 l0 -32 l3.6 0 l5.24 19.6 l-0.04 -0.4 l0 -19.2 l4 0 l0 32 l-3.6 0 l-5.24 -17.6 l0.04 0.4 l0 17.2 l-4 0 z M60.8 40 l0 -32 l4 0 l0 32 l-4 0 z M70.8 40 l0 -32 l3.6 0 l5.24 19.6 l-0.04 -0.4 l0 -19.2 l4 0 l0 32 l-3.6 0 l-5.24 -17.6 l0.04 0.4 l0 17.2 l-4 0 z M89.6 40 l0 -32 l6 0 c6 0 6 4.4 6 15.16 c0 12.4 0 16.84 -6 16.84 l-6 0 z M93.6 36 l2 0 c2.24 0 2.24 -1.68 2.24 -12.84 c0 -10 0 -11.96 -2.24 -11.96 l-2 0 l0 24.8 z M107.19999999999999 40 l0 -32 l9.2 0 l0 3.2 l-5.2 0 l0 10.4 l4.4 0 l0 3.2 l-4.4 0 l0 11.2 l5.2 0 l0 4 l-9.2 0 z M121.19999999999999 40 l0 -32 l6.48 0 c4.12 0 5.52 2.52 5.52 7.36 c0 4.36 -0.52 6.84 -1.76 8.04 l0 0.24 c1.04 0.36 1.36 2.24 1.76 6.92 l0.8 9.44 l-4 0 l-0.52 -9.44 c-0.28 -4.76 -1 -5.76 -2.2 -5.76 l-2.08 0 l0 15.2 l-4 0 z M125.19999999999999 21.6 l2.48 0 c1.4 0 1.8 -1.4 1.8 -6.24 c0 -3.16 -0.6 -4.16 -1.8 -4.16 l-2.48 0 l0 10.4 z M149.2 30.240000000000002 l4.04 0 c0.08 5.16 0.48 6.16 1.92 6.16 c1.96 0 1.96 -1.64 1.96 -6 c0 -6.4 -7.92 -4.68 -7.92 -13.2 c0 -5 0 -9.6 6 -9.6 c4.44 0 5.64 2.52 5.92 8.56 l-4 0 c-0.16 -4.36 -0.64 -5.36 -1.92 -5.36 c-1.96 0 -1.96 2.16 -1.96 6.4 c0 6.2 7.96 4 7.96 13.2 c0 5.6 0 10 -6.04 10 c-4.64 0 -5.72 -2.76 -5.96 -10.16 z M166.4 40 l0 -32 l4 0 l0 32 l-4 0 z M176.4 40 l0 -32 l3.6 0 l5.24 19.6 l-0.04 -0.4 l0 -19.2 l4 0 l0 32 l-3.6 0 l-5.24 -17.6 l0.04 0.4 l0 17.2 l-4 0 z M194.8 23.16 c0 -11.16 0 -15.56 6 -15.56 c4.56 0 5.64 2.52 5.92 8.56 l-3.72 0 c-0.16 -4.36 -0.6 -5.36 -2.2 -5.36 c-2.24 0 -2.24 1.96 -2.24 12.36 c0 11.56 0 13.24 2.24 13.24 c2.12 0 2.24 -1.52 2.24 -10 l-2.64 0 l0 -3.2 l6.4 0 l0 1.56 c0 11.2 0 15.64 -6 15.64 s-6 -4.44 -6 -17.24 z M212.00000000000003 40 l0 -32 l4 0 l0 13.6 l4 0 l0 -13.6 l4 0 l0 32 l-4 0 l0 -15.2 l-4 0 l0 15.2 l-4 0 z"></path></g><g id="SvgjsG2178" featureKey="sloganFeature-0" transform="matrix(0.8521967935341441,0,0,0.8521967935341441,127.76138512537153,79.97763171967594)" fill="url(#SvgjsLinearGradient2191)"><path d="M0.5 19.82 l0 -0.1 c0.04 -0.04 -0.02 -0.38 0.42 -0.38 c0.34 0 0.4 0.02 0.58 0.02 c0.4 0 0.7 -0.02 0.76 -0.12 l0 -1.7 c0 -0.04 -0.02 -0.18 -0.02 -0.2 l-0.02 0.02 c-0.04 -0.04 0.04 0.18 0.04 -0.54 c0 -1.5 -0.02 -2.06 -0.02 -2.56 c0 -0.32 0 -0.94 0.04 -1.46 c0 -0.04 -0.08 -0.3 -0.08 -0.8 c0 -0.24 0.06 -0.24 0.06 -0.36 c0 -0.32 -0.02 -0.62 -0.02 -0.86 c0 -0.42 0.02 -0.74 0.02 -1.2 c0 -0.12 0.3 -0.1 0.36 -0.16 c0 0 0 -0.1 -0.18 -0.1 c0 0 -0.06 0 -0.12 0.08 c-0.02 0 -0.04 -0.02 -0.06 -0.08 l0 -3.38 c0 -0.26 -0.06 -0.42 -0.32 -0.42 c-0.38 0 -0.46 0.06 -1.14 0.06 c-0.54 0 -0.22 -0.08 -0.52 -0.26 c0 -0.48 1.5 -0.34 1.92 -0.4 l-0.06 0 c0 0.02 1.16 0.08 1.16 0.08 c0.04 0 0.08 0.02 0.12 0.02 c0.24 0 0.34 -0.1 0.52 -0.1 c0.08 0 0.16 0.02 0.26 0.02 c0.06 0 0.22 -0.02 0.32 -0.02 c0.24 0 0.96 0.02 1.18 0.02 c0.16 0 0.28 -0.06 0.6 -0.06 c0.1 0 1.84 0.04 2.06 0.04 c0.4 0 1.06 0.2 1.6 0.2 c0.76 0.08 0.3 0.18 1.06 0.36 c-0.02 0 -0.04 -0.02 -0.04 -0.02 c0 0.02 0.56 0.32 0.56 0.38 c0.24 0.06 0.6 0.56 0.78 0.72 l-0.02 -0.02 s0.54 0.76 0.54 1.44 c0 0.74 0 0.78 -0.16 1.28 c0 0.34 -0.46 0.94 -1.26 1.62 c-0.1 -0.04 -0.22 0.34 -0.58 0.34 c0.06 -0.2 -0.1 0.26 -0.66 0.3 c-0.02 -0.02 -0.04 -0.02 -0.04 -0.02 c-0.1 0 -0.24 0.18 -0.32 0.18 c-0.76 0.2 -1.1 0.12 -1.1 0.42 c0 0 -0.04 0.16 0.12 0.16 c0.22 -0.04 0.58 0.32 0.7 0.32 c0.42 0 0.5 0.38 0.84 0.38 c0.36 0.16 0.5 0.28 0.94 0.74 c0.44 1.3 0.78 0.6 0.78 1.58 c0 0.54 0.18 0.92 0.18 1.46 c0 0.08 -0.04 0.42 -0.04 1.12 c0.04 0.26 0.06 0.78 0.14 0.86 l0 -0.04 c0 0.02 -0.06 0.66 0.64 0.66 c0.48 0 0.7 -0.06 0.84 -0.06 c0 0 0.02 0.02 0.04 0.02 c0.04 0 0.14 -0.04 0.22 -0.04 s0.16 0.02 0.2 0.1 l-0.14 0 c0 0.1 0.06 0.1 0.06 0.14 c0.04 -0.02 0.06 -0.06 0.08 -0.06 l0.02 0 l0 0.26 c-0.06 0 -0.06 -0.06 -0.06 -0.14 c-0.04 0.02 -0.06 0.02 -0.16 0.06 c0 0.04 0.02 0.08 0.16 0.14 c-0.08 0.04 -0.1 0.14 -0.2 0.14 l0 -0.02 s-0.1 0.2 -0.7 0.2 c-0.22 0 -1.58 -0.08 -1.94 -0.1 c0 0.02 0 0.02 -0.02 0.02 c-0.16 0 -0.54 -0.4 -0.86 -0.4 l0.02 0 c0 -0.08 -0.9 -0.5 -0.92 -0.88 l0.02 0.02 c0 -0.02 -0.2 -0.2 -0.2 -0.26 c0 -0.04 0.02 -0.16 0.02 -0.28 c0 -0.06 -0.06 -0.06 -0.16 -0.1 c-0.14 -3.26 -0.44 -4.16 -0.74 -4.6 c-0.06 0.22 0.08 -0.24 -0.38 -0.46 c0 -0.14 -0.62 -0.36 -0.6 -0.44 c-0.04 0 -0.08 0.02 -0.1 0.02 c-0.42 0 -0.4 -0.4 -1.08 -0.4 l-1.08 0 c-0.22 0.46 -0.22 1.04 -0.22 1.32 c0 0.06 0 0.52 0.04 0.56 c0 0.02 -0.02 0.08 -0.06 0.28 c0 0.06 0.04 0.3 0.04 0.46 l0 -0.02 c0 0.12 -0.02 0.56 -0.02 0.7 c0 0.26 0.02 0.32 0.02 0.5 l0 2.32 c0 0.04 0.04 0.16 0.04 0.2 c0 0.06 -0.04 0.18 -0.04 0.26 c0 0.26 0.04 0.3 0.04 0.4 c-0.02 0.02 -0.04 0.02 -0.04 0.04 c0 0.06 0.28 0.1 0.82 0.1 c0.02 0 0.42 -0.04 0.44 -0.04 c0.56 0 0.56 0.04 0.68 0.2 c0 0.36 -0.08 0.42 -0.14 0.42 c-0.02 0 -0.04 -0.02 -0.08 -0.1 c-0.1 0 -0.12 0 -0.12 0.02 c0.16 0.18 -1.94 0.18 -2.16 0.18 l0.04 0 s-0.68 -0.02 -0.94 -0.08 c-0.8 0.08 -2.18 0 -2.74 0.2 c-0.24 0 -0.46 0 -0.46 -0.32 z M12.84 19.94 c-0.02 0 -0.04 0.02 -0.04 0.04 s0.02 0.04 0.04 0.04 c0 0 0.02 -0.02 0.02 -0.04 s-0.02 -0.04 -0.02 -0.04 z M13.38 19.76 c-0.14 0 -0.1 0.08 -0.16 0.18 c0 0 0.02 0.02 0.04 0.02 c0.06 0 0.12 -0.1 0.12 -0.2 z M1.54 19.88 c-0.04 0 -0.1 0 -0.14 0.02 c0.04 0 0.1 0 0.14 -0.02 z M1.58 19.88 l0 0.02 l0.04 0 z M2.3 19.9 l-0.02 -0.02 c-0.02 0 -0.02 0.02 -0.02 0.02 c0 0.02 0 0.04 0.02 0.04 c0 0 0.02 -0.02 0.02 -0.04 z M2.68 19.86 c-0.02 0.02 -0.04 0.02 -0.04 0.04 c0.02 0 0.06 0 0.08 -0.02 z M5.78 19.82 l0 0.06 l0.12 0 c-0.04 -0.04 -0.06 -0.06 -0.12 -0.06 z M6.56 19.86 c-0.02 0 -0.04 0.02 -0.04 0.02 s0.02 0.02 0.04 0.02 s0.02 -0.02 0.02 -0.02 s0 -0.02 -0.02 -0.02 z M13.46 19.7 c-0.02 0.06 0.08 0.16 0.08 0.18 c0.1 0 0.1 0 0.16 -0.02 c-0.06 -0.18 0 -0.22 -0.16 -0.3 c-0.06 0.04 -0.08 0.02 -0.08 0.14 z M5.5 19.82 l-0.04 0.04 l0.04 0 l0 -0.04 z M6.84 19.46 c0 0.18 0.12 0.18 0.12 0.32 l0.04 0 l0 -0.22 c-0.02 -0.04 -0.06 -0.08 -0.16 -0.1 z M0.84 19.5 l0 0.06 c0 -0.02 0.02 0.18 0.14 0.18 c0.02 0 0.06 -0.04 0.1 -0.08 c-0.02 0.02 -0.16 -0.16 -0.22 -0.16 l-0.02 0 z M1.18 19.7 c0 -0.02 -0.02 -0.02 -0.02 -0.02 c-0.02 0 -0.02 0 -0.02 0.02 c0 0 0 0.02 0.02 0.02 z M5.54 19.66 c-0.02 0 -0.02 0.02 -0.02 0.02 c0 0.02 0 0.02 0.02 0.02 s0.02 0 0.02 -0.02 c0 0 0 -0.02 -0.02 -0.02 z M6.16 19.6 l0 0.1 c0.04 -0.02 0.08 -0.04 0.1 -0.08 c-0.04 -0.02 -0.06 -0.02 -0.1 -0.02 z M0.84 19.36 c-0.02 0 -0.02 0.02 -0.02 0.04 s0 0.04 0.02 0.04 s0.02 -0.02 0.02 -0.04 s0 -0.04 -0.02 -0.04 z M10.06 18.84 c0.02 0.04 0.04 0.1 0.04 0.1 c0.02 0 0.02 0 0.02 -0.02 l0 -0.08 l-0.06 0 z M4.48 18.3 l0.08 0.04 c0.04 -0.02 0.04 -0.06 0.04 -0.1 c-0.06 0 -0.08 0.02 -0.12 0.06 z M9.22 17.5 c0.02 0 0.02 0.02 0.02 0.04 c0 0 0 0.02 -0.02 0.02 s-0.02 -0.02 -0.02 -0.02 c0 -0.02 0 -0.04 0.02 -0.04 z M9.46 17.48 c0.02 0.02 0.04 0.02 0.08 0.02 c-0.04 -0.02 -0.06 -0.02 -0.08 -0.02 z M2.52 15.4 c-0.02 0 -0.04 0.02 -0.04 0.04 s0.02 0.04 0.04 0.04 s0.02 -0.02 0.02 -0.04 s0 -0.04 -0.02 -0.04 z M2.36 14.879999999999999 c-0.02 0 -0.04 0.02 -0.04 0.04 s0.02 0.04 0.04 0.04 s0.02 -0.02 0.02 -0.04 s0 -0.04 -0.02 -0.04 z M9.04 12.48 c-0.02 0 -0.04 0.02 -0.04 0.02 c0 0.02 0.02 0.04 0.04 0.04 c0 0 0.02 -0.02 0.02 -0.04 z M4.26 12.14 l0 0.08 l0.02 0.02 c0.06 0 0.14 -0.08 0.14 -0.1 l-0.16 0 z M4.3 11.94 c0 0.02 -0.02 0.02 -0.02 0.02 c0 0.02 0.02 0.02 0.08 0.02 c0 0 0.02 0 0.06 -0.02 c-0.02 -0.06 0 -0.08 -0.06 -0.16 c-0.02 0 -0.08 0.12 -0.06 0.14 z M5.14 10.22 l0 1.02 c0 0.34 0.2 0.4 0.38 0.5 c3.18 -0.08 3.18 -0.52 3.48 -0.82 c-0.02 0 -0.02 -0.02 -0.02 -0.02 c0 -0.1 0.3 -0.3 0.3 -0.44 l-0.02 0 c0 -0.08 0.42 -0.74 0.42 -1.6 c0 -2.04 -0.56 -2.42 -0.64 -2.84 c0 -0.02 -0.6 -0.54 -1.3 -0.54 c-0.44 0 -0.54 0.04 -0.7 0.04 l-1.5 0 c-0.42 0 -0.26 0.2 -0.38 0.42 l0 1.58 l0.04 0.1 c0 0.78 -0.08 1.5 -0.08 2.2 c0 0.04 0 0.1 0.06 0.16 c0 0.04 -0.04 0.1 -0.04 0.24 z M2.52 9.78 c-0.02 0 -0.04 0.02 -0.04 0.02 l0.04 0 l0.02 0 s0 -0.02 -0.02 -0.02 z M2.46 9.68 c-0.02 0 -0.02 0.02 -0.02 0.04 c0 0 0 0.02 0.02 0.02 l0.02 -0.02 c0 -0.02 -0.02 -0.04 -0.02 -0.04 z M2.52 9.58 c-0.02 0 -0.04 0.02 -0.04 0.04 c0 0 0.02 0.02 0.04 0.02 s0.02 -0.02 0.02 -0.02 c0 -0.02 0 -0.04 -0.02 -0.04 z M2.36 8.42 l0 0.1 l0.04 0 c0 -0.04 0 -0.08 -0.04 -0.1 z M11.38 6.1 c0.02 0.04 0.08 0.04 0.1 0.04 l0 -0.12 c-0.06 0 -0.1 0 -0.1 0.08 z M9.86 5.42 c-0.02 0 -0.04 0.02 -0.04 0.04 s0.02 0.02 0.04 0.02 s0.02 0 0.02 -0.02 s0 -0.04 -0.02 -0.04 z M1.58 5.279999999999999 c0.04 0.02 0.08 0.02 0.12 0.02 l-0.08 -0.06 z M3.52 5.279999999999999 l0 -0.02 c-0.02 0 -0.02 0 -0.02 0.02 s0 0.02 0.02 0.02 l0 -0.02 z M8.2 5.24 l0.08 0.04 c0.1 0 0.1 -0.04 0.1 -0.14 c0 -0.02 -0.02 -0.02 -0.1 -0.02 c-0.04 0 -0.08 0 -0.08 0.12 z M6.16 5.119999999999999 c0 0.04 -0.02 0.12 0.04 0.12 c0.02 -0.02 0.04 -0.08 0.06 -0.12 l-0.1 0 z M8.96 5.199999999999999 c-0.02 0 -0.04 0.02 -0.04 0.02 c0 0.02 0.02 0.02 0.04 0.02 s0.02 0 0.02 -0.02 c0 0 0 -0.02 -0.02 -0.02 z M1.88 5.119999999999999 l0 0.04 c0 -0.02 0.06 0.04 0.1 -0.04 l-0.1 0 z M7.04 5.119999999999999 c-0.04 0 -0.06 0.02 -0.08 0.04 l0.08 0 l0 -0.04 z M0.5 5.119999999999999 l0.02 0 l0.48 0 l-0.5 0 z M19.687 19.72 l0 -0.1 l0.24 -0.24 l0.98 0 l0.08 0.04 l0.46 0.04 c0.08 0.04 0.18 -0.26 0.24 -0.26 l0 -2.42 c0 -0.02 -0.04 -0.26 -0.04 -0.28 c0 0 0.04 -0.48 0.04 -0.58 c0.04 -0.06 -0.06 0.08 -0.06 -0.32 c0 -0.04 0.06 -0.08 0.06 -0.16 c0 -0.14 -0.04 -0.22 -0.04 -0.32 c0 -0.04 0.04 -0.18 0.04 -0.26 l0 -1.26 c0 -0.18 -0.06 -0.5 -0.06 -0.74 l0.02 -1.72 c-0.02 -0.08 -0.02 -0.6 -0.02 -0.7 c0 -0.06 0.02 -0.52 0.02 -0.58 c0 -0.02 -0.02 -1.04 -0.02 -1.16 c0 -1.24 0.02 -1.46 0.02 -2 c0 -0.24 0 -0.76 -0.02 -0.92 l-0.12 -0.14 s-0.4 -0.02 -0.56 -0.02 c-0.26 0 -0.46 0.06 -0.7 0.06 c-0.22 -0.04 -0.44 0.12 -0.64 -0.34 c0 -0.18 0.04 -0.4 0.22 -0.44 c4.08 0 4.5 0.04 6.12 0.04 c3.88 0 3.66 -0.04 5.28 -0.04 c0.2 0 0.42 3.66 0.42 3.84 c0 0.02 0.02 0.02 0.02 0.04 c0 0.24 -0.36 0.42 -0.48 0.42 c-0.26 0 -0.4 -0.28 -0.48 -0.6 c0.08 0 -0.86 -1.54 -0.82 -1.46 c-0.26 -0.26 -0.28 -0.3 -0.44 -0.5 c0 -0.18 -0.86 -0.58 -0.96 -0.72 c0 0.02 -0.02 0.02 -0.02 0.02 c-0.06 0 -0.12 -0.24 -0.54 -0.24 c-0.56 0 -0.52 -0.08 -1.38 -0.08 l0 -0.04 l-0.62 0 l-0.04 0.04 l-0.26 0 l0.14 -0.04 c-0.46 0 -0.66 -0.06 -0.78 -0.06 c-0.18 0 -0.4 0.1 -0.4 0.68 c0 1.12 0.04 1.72 0.04 2 c0 0.3 -0.04 1.18 -0.04 1.3 c0 0.34 0.08 0.62 0.08 0.86 c-0.04 0 -0.08 0.14 -0.08 0.2 s0.08 0.44 0.08 0.62 c0 0.04 -0.04 0.1 -0.04 0.12 c0 0.06 -0.06 0.82 0.14 0.82 c0.46 0 0.8 -0.12 1.16 -0.12 l0 0.02 c0.06 0 0.24 -0.3 0.38 -0.3 c0.24 0 0.28 -0.08 0.54 -0.34 l0 0.02 c-0.02 0 0.34 -0.72 0.54 -0.96 c0.34 -0.16 -0.12 -1 0.88 -1 l0.06 0.04 c0 0.18 0.1 0.24 0.1 0.8 c-0.02 0.16 -0.04 0.68 -0.04 0.64 c0 0.22 0.04 0.56 0.04 0.84 c0 0.24 0 0.24 -0.04 0.36 c0 0.2 0.04 0.46 0.04 0.52 c0 0.26 -0.04 0.26 -0.04 0.46 c0 0.16 0.04 1.24 0.04 1.38 c0 0.08 -0.04 0.16 -0.04 0.28 l0 0.74 c0.02 0.02 -0.16 0.16 -0.26 0.16 c-0.64 0 -0.1 -0.12 -0.82 -1.42 c-0.56 -0.98 -0.74 -0.94 -1.06 -1.22 c0.02 0 -0.58 -0.2 -0.72 -0.2 l-0.06 -0.1 l-0.64 -0.02 c-0.3 0.16 -0.26 1 -0.26 0.68 c0 0.08 0.06 0.28 0.06 0.58 c0 0.14 -0.02 0.38 -0.06 0.6 c0 0.02 0.06 0.2 0.06 0.32 c0 0.2 -0.04 0.18 -0.04 0.26 c0 0.14 0.04 0.22 0.04 0.28 c-0.06 0.78 -0.08 2.18 -0.08 2.42 c0 1.26 -0.02 1.36 0.28 1.66 l0.86 0 c0.08 -0.02 0.18 -0.08 0.26 -0.08 c0.02 0 1.2 0.04 1.36 0.04 s0.02 -0.1 0.44 -0.1 c0.76 -0.3 0.72 -0.04 1.36 -0.54 c-0.02 0 -0.02 -0.02 -0.02 -0.02 c0 -0.06 0.5 -0.28 0.76 -0.6 c-0.02 0 -0.02 -0.02 -0.02 -0.02 c0 -0.3 0.88 -0.52 0.88 -1.24 c0 -0.08 0.36 -0.54 0.36 -0.66 c0.5 -1.26 0.18 -1.2 0.82 -1.2 c0.02 0 0.24 0 0.24 0.26 c0 1.3 -0.2 2.9 -0.2 3.8 c0 0.14 0.02 0.28 0.02 0.42 c0 0.24 -0.08 0.44 -0.56 0.44 l-7.7 0 c-1.16 0 -1.58 0.04 -3.72 0.04 c-0.38 -0.12 -0.28 -0.28 -0.28 -0.32 z M19.887 19.8 l0 -0.02 l0 0.06 c0 0.06 0.02 0.14 0.2 0.14 c0.04 0 0.1 0 0.16 -0.02 l0 -0.04 l-0.16 -0.18 c-0.02 0.04 -0.04 0.08 -0.08 0.1 c-0.02 0 -0.08 -0.02 -0.12 -0.06 l0 0.02 z M26.987000000000002 19.88 l0.02 0.04 c0.02 -0.02 0.02 -0.02 0.02 -0.08 z M26.207 19.84 c-0.06 0 -0.08 0 -0.1 0.04 l0.1 0 l0 -0.04 z M20.587 19.62 c0.04 0 0.12 0.04 0.14 0.04 c0.18 0 0.12 0 0.18 -0.04 c-0.04 0 -0.18 -0.04 -0.2 -0.04 c-0.08 0 -0.08 0 -0.12 0.04 z M31.567 19.62 c0.02 0.06 0.08 0.04 0.12 0.04 c-0.02 -0.04 -0.06 -0.04 -0.12 -0.04 z M22.127000000000002 19.62 c0 -0.02 -0.02 -0.02 -0.04 -0.02 s-0.04 0 -0.04 0.02 s0.02 0.04 0.04 0.04 s0.04 -0.02 0.04 -0.04 z M20.007 19.56 l0 0.02 l0.2 0 c-0.04 -0.02 -0.16 -0.02 -0.2 -0.02 z M21.847 16.9 l-0.02 -0.02 c-0.02 0 -0.02 0.02 -0.02 0.02 c0 0.02 0 0.04 0.02 0.04 c0 0 0.02 -0.02 0.02 -0.04 z M21.807000000000002 16.04 l0 0.08 c0.02 0 0.02 -0.02 0.02 -0.04 s0 -0.04 -0.02 -0.04 z M21.847 15.92 c0.02 0.04 0.06 0.04 0.12 0.04 c0 -0.04 0.02 -0.16 -0.04 -0.2 c0 0.04 -0.08 0.1 -0.08 0.16 z M21.967000000000002 15.54 c0 0.02 0 0.04 0.02 0.06 l0.02 -0.06 l-0.04 0 z M31.967 15.54 c-0.02 0 -0.04 0.02 -0.04 0.04 c0 0 0.02 0.02 0.04 0.02 s0.02 -0.02 0.02 -0.02 c0 -0.02 0 -0.04 -0.02 -0.04 z M32.067 15.5 c-0.02 0 -0.02 0.02 -0.02 0.04 c0 0 0 0.02 0.02 0.02 l0 -0.06 z M21.847 12.48 c-0.02 0 -0.04 0.02 -0.04 0.04 c0 0 0.02 0.02 0.04 0.02 s0.02 -0.02 0.02 -0.02 c0 -0.02 0 -0.04 -0.02 -0.04 z M21.987000000000002 12.48 c0 -0.02 0 -0.02 -0.02 -0.02 l0 0.04 c0.02 0 0.02 0 0.02 -0.02 z M21.847 11.6 l-0.02 -0.02 c-0.02 0 -0.02 0.02 -0.02 0.02 c0 0.02 0 0.04 0.02 0.04 c0 0 0.02 -0.02 0.02 -0.04 z M28.227 9.92 c0 -0.02 -0.02 -0.02 -0.04 -0.02 c0 0 -0.02 0 -0.02 0.02 s0.02 0.04 0.02 0.04 c0.02 0 0.04 -0.02 0.04 -0.04 z M31.067 8.96 c-0.02 0 -0.04 0.02 -0.04 0.04 c0 0 0.02 0.02 0.04 0.02 s0.02 -0.02 0.02 -0.02 c0 -0.02 0 -0.04 -0.02 -0.04 z M24.107 7.960000000000001 c-0.02 0.02 -0.02 0.06 -0.02 0.08 l0.22 0 c-0.02 -0.04 -0.1 -0.08 -0.2 -0.08 z M21.807000000000002 7.18 l0 0.08 c0.02 0 0.02 -0.02 0.02 -0.04 s0 -0.04 -0.02 -0.04 z M21.807000000000002 6.16 l0 0.08 c0.02 0 0.02 -0.02 0.02 -0.04 s0 -0.04 -0.02 -0.04 z M31.267000000000003 5.42 l0 0.2 l0.02 -0.1 c0 -0.04 0 -0.06 -0.02 -0.1 z M21.107 5.539999999999999 c-0.02 0 -0.02 0.02 -0.02 0.04 s0 0.04 0.02 0.04 s0.02 -0.02 0.02 -0.04 s0 -0.04 -0.02 -0.04 z M22.787 5.58 c0 -0.02 -0.02 -0.02 -0.02 -0.02 c-0.02 0 -0.02 0 -0.02 0.02 s0 0.04 0.02 0.04 c0 0 0.02 -0.02 0.02 -0.04 z M20.547 5.380000000000001 c-0.18 0 -0.08 0.14 -0.14 0.16 c0.12 0 0.14 -0.02 0.14 -0.06 c0 -0.02 -0.02 -0.04 -0.02 -0.06 s0.02 -0.02 0.02 -0.04 z M21.027 5.48 l0.06 0.04 l0.02 -0.04 l-0.04 -0.02 z M20.147000000000002 5.42 c-0.02 0 -0.02 0.02 -0.02 0.04 c0 0 0 0.02 0.02 0.02 s0.02 -0.02 0.02 -0.02 c0 -0.02 0 -0.04 -0.02 -0.04 z M20.347 5.34 l-0.14 0.04 l0.14 0 l0 -0.04 z M22.127000000000002 5.34 c-0.02 0 -0.04 0.02 -0.04 0.02 c0 0.02 0.02 0.02 0.04 0.02 c0 0 0.02 0 0.02 -0.02 z M24.147000000000002 5.34 l0 0.04 l0.02 0 z M20.447000000000003 5.34 l-0.04 0 c0 0.02 0 0.04 0.02 0.04 c0 0 0.02 -0.02 0.02 -0.04 z M20.907 5.32 c-0.04 0 -0.04 0.04 -0.04 0.04 c0.02 0 0.02 -0.02 0.04 -0.04 z M21.767 5.34 l-0.04 0 c0 0.02 0 0.04 0.02 0.04 c0 0 0.02 -0.02 0.02 -0.04 z M25.027 5.32 c-0.04 0 -0.08 0.02 -0.12 0.02 l0.14 0 z M19.847 5.32 c0 0 0 -0.02 -0.02 -0.02 l0 0.04 c0.02 0 0.02 0 0.02 -0.02 z M25.887 5.26 c0 0.08 0.02 0.04 0.04 0.06 c0 0 0.02 0 0.04 -0.02 l-0.04 -0.08 z M31.187 5.0600000000000005 l0 0.24 l0.04 0 c0 -0.06 0.02 -0.24 -0.04 -0.24 z M20.667 5.1 c-0.02 0 -0.04 0.02 -0.04 0.02 c0 0.02 0.02 0.02 0.04 0.02 s0.02 0 0.02 -0.02 c0 0 0 -0.02 -0.02 -0.02 z M20.007 5.1 l-0.02 -0.04 z M20.247 5.02 c-0.04 0.02 -0.06 0.04 -0.06 0.06 l0.02 0.02 l0.04 0 l0 -0.08 z M38.034 20.08 c-0.22 0 -0.22 0.02 -0.36 0.02 c-0.04 0 -0.22 -0.16 -0.28 -0.22 c0 0 0.04 -0.3 0.04 -0.36 c0.72 -0.06 1.24 -0.08 1.8 -0.14 c0.06 0 0 -0.38 0.22 -0.38 l0 -0.32 c0.02 0.02 0.04 0.02 0.04 0.02 c0.12 0 0.1 -0.56 0.26 -0.6 c0 -0.04 0.08 -0.72 0.28 -0.88 l0.1 -0.38 s0.68 -2.32 0.94 -2.32 c0.02 0 0.06 0.02 0.08 0.02 c0.1 0 0.12 -0.04 0.12 -0.08 c0 -0.18 -0.16 -0.1 -0.16 -0.24 c0 -0.36 0.36 -1.04 0.4 -1.08 c0.02 -0.82 0.32 -0.62 0.32 -1.14 l0 0.02 c0.02 0 0.18 -0.5 0.26 -0.56 c0 0.04 0.02 0.04 0.02 0.04 s-0.02 0 -0.02 -0.02 c0 -0.12 0.4 -0.94 0.4 -1.16 c0.1 0 0.12 -0.02 0.12 -0.06 s-0.02 -0.08 -0.02 -0.14 c0 -0.12 0.04 -0.24 0.18 -0.4 l0 0.02 c0.04 0 0.02 -0.44 0.18 -0.44 l0.08 -0.38 l0.12 -0.1 l0 -0.32 l0.16 -0.12 l0 -0.34 s0.12 -0.04 0.12 -0.08 c-0.02 0 -0.04 -0.04 -0.04 -0.06 c0 -0.26 0.5 -1.02 0.5 -1.54 l0.1 -0.08 l0 -0.32 c0 0.02 0.02 0.02 0.02 0.02 c0.28 0 -0.1 -1.16 0.94 -1.16 c0.08 0 0.44 0.22 0.44 0.52 c0.08 0.08 -0.08 0.28 0.28 0.94 c0.02 0 0.5 1.3 0.5 1.64 c0.18 0 0.06 0.4 0.52 1.36 c0.12 0.54 0.34 0.52 0.34 0.76 l0 -0.02 s0.1 0.64 0.18 0.64 l-0.02 0 c0 0.08 0.48 0.6 0.48 1.22 c0.12 0.58 0.32 0.34 0.32 0.84 l-0.02 -0.02 c0 0.04 0.32 0.46 0.32 0.72 c-0.02 0 -0.04 0 -0.04 0.02 c0 0.08 0.22 0.36 0.22 0.46 c0 0.02 -0.02 0.02 -0.02 0.04 c0 0.04 0.2 0.2 0.2 0.56 c0.08 0.7 0.42 0.74 0.42 1.18 c-0.02 0.04 -0.04 0.06 -0.04 0.08 c0 0.1 0.32 0.1 0.32 0.56 c0 1.14 0.78 1.4 0.78 2.2 c0.08 0.64 0.46 0.86 0.52 0.9 l1.3 0 c0.08 0 0.2 0.06 0.26 0.1 l0 0.36 c-0.08 0.04 -0.14 0.12 -0.46 0.12 c-0.04 0 -1 -0.04 -1.4 -0.04 c-0.18 0 -0.34 0.04 -0.5 0.04 c-0.02 0 -0.34 -0.04 -0.38 -0.04 c-1.08 0 -1.76 0.06 -2.18 0.06 c-0.02 0 -0.02 -0.06 -0.34 -0.06 c-0.16 0 -0.2 0 -0.28 0.04 c-0.1 0 -0.18 -0.04 -0.22 -0.1 c-0.04 0 -0.12 0.02 -0.12 0.02 l0.04 0.04 l-0.04 0.04 c-0.66 0 -0.72 0 -0.86 -0.12 l0.04 -0.34 c0 -0.04 0.14 -0.12 0.22 -0.12 l1.5 0 c0.02 0.02 0.16 -0.1 0.16 -0.2 c0 -0.04 -0.32 -0.46 -0.32 -0.7 c0.04 -0.02 0.04 -0.02 0.04 -0.06 c0 -0.1 -0.34 -0.36 -0.34 -0.88 c0.02 0 0.02 0 0.02 -0.02 c0 -0.04 -0.22 -0.2 -0.22 -0.36 c0 -0.72 -0.32 -0.72 -0.32 -1.26 l0 0.02 c-0.04 0 -0.22 -0.5 -0.4 -0.5 c-1.34 0 -2.76 0.04 -4.38 0.04 c0 0.08 -0.16 0.12 -0.16 0.34 c-0.3 0.66 -0.34 0.56 -0.34 0.88 c-0.24 0.16 0.02 0.28 -0.26 0.62 c-0.16 1.1 -0.38 0.48 -0.38 1.22 l0 -0.02 c-0.04 0 -0.22 0.52 -0.24 0.52 c0 0.32 0.08 0.32 0.2 0.4 l1.6 0 c0.1 0 0.3 0.02 0.3 0.26 s-0.06 0.36 -0.42 0.36 c-0.06 0 -0.14 -0.04 -0.24 -0.04 c-0.22 0 -0.3 0.04 -0.4 0.04 c-0.04 0 -0.14 -0.04 -0.16 -0.04 l-1.42 0 c-0.04 0.04 -0.08 0.04 -0.12 0.04 c-0.06 0 -0.16 -0.02 -0.24 -0.08 c0 0 0.04 -0.04 0.04 -0.08 l-0.06 0 c-0.04 0 -0.06 0 -0.06 0.04 l0.02 0.04 c-0.02 0.08 -0.04 0.08 -0.16 0.08 c0 -0.26 0 -0.2 0.06 -0.28 c-0.02 -0.08 0.02 -0.18 -0.04 -0.22 c0 0.14 -0.06 0.24 -0.18 0.32 c0 0.04 0.06 0.08 0.1 0.1 c-0.08 0 -0.3 0.1 -0.34 0.16 c-0.36 0 -0.32 -0.08 -0.54 -0.08 z M37.873999999999995 19.92 l0 0.04 l0.1 0 c-0.06 -0.04 -0.08 -0.04 -0.1 -0.04 z M38.214 19.96 c0 -0.02 -0.02 -0.02 -0.04 -0.02 s-0.04 0 -0.04 0.02 s0.02 0.04 0.04 0.04 s0.04 -0.02 0.04 -0.04 z M38.333999999999996 19.92 c-0.02 0 -0.04 0.02 -0.04 0.04 s0.02 0.04 0.04 0.04 s0.02 -0.02 0.02 -0.04 s0 -0.04 -0.02 -0.04 z M38.773999999999994 19.88 c-0.12 0 -0.28 0.04 -0.32 0.08 c0.34 0 0.24 -0.02 0.32 -0.08 z M39.434 19.9 c0 0.02 0.16 0.04 0.18 0.06 l0.04 -0.04 c-0.1 -0.02 -0.2 -0.02 -0.22 -0.02 z M40.913999999999994 19.92 c0.26 0 0.66 0.04 0.76 0.04 c-0.22 0 -0.22 -0.22 -0.24 -0.32 c0.02 0 -0.16 0.04 -0.16 0.16 c-0.04 0 -0.02 -0.12 -0.18 -0.12 c0 0.14 -0.08 0.18 -0.18 0.24 z M41.833999999999996 19.92 l0.04 0.04 c0.02 0 0.14 -0.04 0.18 -0.04 l-0.22 0 z M39.074 19.9 c-0.02 0 -0.04 0.02 -0.04 0.04 c0 0 0.02 0.02 0.04 0.02 s0.02 -0.02 0.02 -0.02 c0 -0.02 0 -0.04 -0.02 -0.04 z M40.653999999999996 19.92 c0 0 -0.04 -0.02 -0.06 -0.02 c-0.04 0 -0.04 0.02 -0.04 0.02 c0 0.02 0 0.04 0.04 0.04 c0.02 0 0.06 -0.02 0.06 -0.04 z M45.574 19.88 c0.02 0.02 0.08 0.04 0.1 0.04 s0.12 -0.02 0.16 -0.04 l0 -0.24 s-0.04 -0.02 -0.06 -0.02 c-0.18 0 -0.2 0.04 -0.2 0.12 l0 0.14 z M50.994 19.9 c0.06 0 0.08 0.02 0.18 0.02 c0.02 0 0.12 -0.02 0.18 -0.02 l-0.36 0 z M51.95399999999999 19.9 l0 0.02 l0.02 -0.02 l-0.02 0 z M46.134 19.88 l-0.04 0.02 l0.06 0.02 z M47.634 19.88 c-0.02 0 -0.04 0.02 -0.04 0.02 s0.02 0.02 0.04 0.02 s0.02 -0.02 0.02 -0.02 s0 -0.02 -0.02 -0.02 z M50.373999999999995 19.88 c0.02 0.02 0.04 0.02 0.1 0.02 l0.38 0 c-0.02 -0.02 -0.06 -0.04 -0.1 -0.06 c-0.04 0.04 -0.1 0.04 -0.12 0.04 c-0.18 0 -0.14 -0.14 -0.18 -0.14 z M37.553999999999995 19.74 c0 0.12 0 0.1 0.04 0.14 l0.26 0 l0 -0.34 c-0.28 0.14 -0.3 0.08 -0.3 0.2 z M41.774 19.78 l0 0.1 c0.04 0 0.06 -0.04 0.06 -0.04 c-0.02 -0.12 -0.08 -0.12 -0.08 -0.22 c-0.08 0 -0.12 0.04 -0.12 0.06 c0.02 0.04 0.04 0.1 0.14 0.1 z M51.553999999999995 19.84 c-0.02 0 -0.02 0.02 -0.02 0.04 s0 0.02 0.02 0.02 s0.02 0 0.02 -0.02 s0 -0.04 -0.02 -0.04 z M38.093999999999994 19.62 c0 0.16 -0.02 0.2 -0.06 0.22 c0.12 0 0.22 0 0.22 -0.12 s-0.02 -0.1 -0.16 -0.1 z M40.214 19.8 l0 0.04 l0.04 0 z M40.574 19.72 l0.04 0.02 l0 -0.06 z M41.873999999999995 19.58 c0 0.02 0 0.06 0.02 0.06 c0 0 0.08 0 0.08 -0.06 c0 -0.04 -0.04 -0.04 -0.08 -0.06 c-0.02 0.02 -0.02 0.04 -0.02 0.06 z M51.013999999999996 19.62 c0 0.02 0.04 0.02 0.06 0.02 c0 -0.1 0 -0.1 -0.04 -0.12 c0 0 -0.02 0.06 -0.02 0.1 z M51.894 19.48 c-0.1 0.02 -0.08 0.06 -0.08 0.16 l0.16 -0.1 c0 -0.02 -0.06 -0.04 -0.08 -0.06 z M50.373999999999995 19.54 c-0.02 0 -0.04 0.02 -0.04 0.02 c0 0.02 0.02 0.02 0.04 0.02 s0.02 0 0.02 -0.02 c0 0 0 -0.02 -0.02 -0.02 z M39.394 19.48 l0 0.06 l0.04 -0.06 l-0.04 0 z M39.45399999999999 19.18 c0 0.02 0.02 0.3 0.2 0.3 c-0.04 -0.02 -0.1 -0.2 -0.1 -0.3 l0.04 -0.12 l-0.04 -0.04 c-0.08 0 -0.1 0.12 -0.1 0.16 z M40.193999999999996 18.24 c-0.06 0.04 -0.14 0.16 -0.14 0.32 c0.02 0.02 0.04 0.02 0.04 0.02 c0.08 0 0.1 -0.12 0.12 -0.18 c0 -0.02 -0.02 -0.18 -0.02 -0.16 z M40.093999999999994 17.72 c0 -0.02 -0.02 -0.02 -0.02 -0.02 c-0.02 0 -0.02 0 -0.02 0.02 s0 0.02 0.02 0.02 c0 0 0.02 0 0.02 -0.02 z M40.653999999999996 16.28 c-0.02 0 -0.04 0.02 -0.04 0.02 s0.02 0.02 0.04 0.02 l0.02 -0.02 z M46.333999999999996 16 c-0.02 0 -0.02 0.02 -0.02 0.04 s0 0.04 0.02 0.04 s0.02 -0.02 0.02 -0.04 s0 -0.04 -0.02 -0.04 z M40.833999999999996 15.84 c-0.02 0 -0.02 0.02 -0.02 0.04 s0 0.04 0.02 0.04 s0.02 -0.02 0.02 -0.04 s0 -0.04 -0.02 -0.04 z M40.833999999999996 15.42 c-0.02 0 -0.02 0.02 -0.02 0.02 c0 0.02 0 0.02 0.02 0.02 s0.02 0 0.02 -0.02 c0 0 0 -0.02 -0.02 -0.02 z M41.754 14.6 c0.06 0.24 0.08 0.26 0.22 0.34 c0.24 0 0.9 -0.04 2.72 -0.04 c0.16 0 0.24 0.06 0.64 0.06 c0.2 0 0.4 -0.06 0.4 -0.28 c0 -0.1 -0.26 -0.48 -0.26 -0.68 l0.02 0 c0 -0.04 -0.22 -0.22 -0.22 -0.44 c0 -0.74 -0.38 -0.66 -0.38 -1.12 c0.02 0.02 0.02 0.04 0.02 0.04 c-0.02 0 -0.38 -0.66 -0.38 -1.04 c0 -0.26 -0.36 -0.64 -0.36 -1.08 l0.02 0 c0 -0.04 -0.22 -0.24 -0.22 -0.48 c-0.18 -0.42 -0.2 -0.38 -0.36 -0.38 c-0.58 1.38 -0.54 1.4 -0.72 1.74 c0 -0.04 -0.02 0.64 -0.28 0.74 l0 -0.04 c-0.02 0 -0.22 1.14 -0.42 1.32 c0 0.26 -0.44 0.6 -0.44 1.34 z M41.354 14.04 c-0.02 0 -0.04 0.02 -0.04 0.04 s0.02 0.04 0.04 0.04 s0.02 -0.02 0.02 -0.04 s0 -0.04 -0.02 -0.04 z M41.81399999999999 12.719999999999999 c-0.02 0 -0.04 0.02 -0.04 0.04 c0 0 0.02 0.02 0.04 0.02 l0 -0.06 z M42.653999999999996 11.54 l0 0.02 l0.02 0 z M42.574 11.22 c-0.02 0 -0.04 0.02 -0.04 0.04 l0.04 0 l0.02 0 c0 -0.02 0 -0.04 -0.02 -0.04 z M42.653999999999996 10.7 c-0.02 0 -0.04 0.02 -0.04 0.02 c0 0.02 0.02 0.04 0.04 0.04 c0 0 0.02 -0.02 0.02 -0.04 z M43.193999999999996 9.34 c0 -0.02 -0.02 -0.02 -0.02 -0.02 c-0.02 0 -0.02 0 -0.02 0.02 s0 0.04 0.02 0.04 c0 0 0.02 -0.02 0.02 -0.04 z M43.254 9.28 l-0.02 0 c0 0.02 0.02 0.02 0.02 0.02 s0.02 0 0.02 -0.02 l-0.02 0 z M45.434 7.880000000000001 c-0.02 0 -0.02 0.02 -0.02 0.04 s0 0.04 0.02 0.04 s0.02 -0.02 0.02 -0.04 s0 -0.04 -0.02 -0.04 z M45.053999999999995 5.1 c0 0 -0.02 0.02 -0.02 0.04 l0.04 0 c0 -0.02 0 -0.04 -0.02 -0.04 z M44.534 5.0600000000000005 c-0.02 0 -0.02 0.02 -0.02 0.04 s0 0.04 0.02 0.04 s0.02 -0.02 0.02 -0.04 s0 -0.04 -0.02 -0.04 z M44.693999999999996 5.0600000000000005 l0.08 0.04 c0.16 0 0.1 0 0.16 -0.04 l-0.06 -0.08 c-0.08 0 -0.12 0.08 -0.18 0.08 z M61.041 20.06 l-2.06 -0.06 l-0.04 0.02 l0.08 -0.12 c-0.02 -0.02 -0.04 -0.04 -0.06 -0.04 c-0.04 0 -0.08 0.14 -0.14 0.2 l-1.18 0 c-0.08 -0.14 -0.2 -0.22 -0.2 -0.32 c0 -0.06 0.04 -0.14 0.04 -0.18 c0.08 -0.12 -0.12 -0.24 1.14 -0.24 c0.12 0 0.26 0.04 0.4 0.04 c0.2 0 0.4 -0.08 0.44 -0.42 c0 -0.68 -0.02 -1.28 -0.02 -1.98 c0 -0.36 0.02 -0.84 0.02 -1.24 c0 -0.86 0 -1.66 -0.06 -2.28 c0 -0.42 0.06 -1.48 0.06 -3.5 c0 -0.08 -0.02 -0.24 -0.02 -0.32 c0 -0.18 0.02 -0.2 0.02 -0.44 c0 -0.18 -0.04 -0.38 -0.04 -0.56 c0 -0.14 0.02 -0.24 0.04 -0.32 c0 -0.02 -0.02 -0.12 -0.02 -0.22 s0 -0.14 0.02 -0.22 l0 -2.22 l-0.12 -0.08 l-1.06 0 c-0.06 0.04 -0.18 0.04 -0.3 0.04 c-0.08 0 -0.22 0.02 -0.22 -0.02 c0 -0.02 -0.32 0.06 -0.32 -0.36 c0.12 -0.32 0.08 -0.28 0.32 -0.4 c2.46 0 2.24 0.04 2.9 0.04 c0.24 0 1.92 -0.04 2.38 -0.04 l0.12 0.04 l1.22 0 c0.18 0.06 0.18 0.18 0.24 0.32 c0 0.18 0.02 0.32 -0.24 0.38 c-0.24 0 -0.74 -0.04 -1.24 -0.04 c-0.78 0 -0.58 0.16 -0.72 0.44 l0 5.5 c0 0.06 -0.04 0.42 -0.04 0.48 c0 0.04 0.04 0.1 0.04 0.14 l0 1.16 c0 0.02 0.04 0.16 0.04 0.2 l-0.04 0.08 l0 3.38 c0 0.06 0.04 0.14 0.04 0.16 s-0.02 0.06 -0.04 0.14 l0 1.34 l-0.04 0.1 c0 0.56 0.06 0.62 0.32 0.72 c0.32 0 0.92 0.04 1.5 0.04 c0.74 0 1.44 -0.06 1.6 -0.28 c-0.04 0 0.44 -0.02 0.58 -0.22 c0.08 0.02 0.26 -0.36 0.56 -0.36 c0.52 -0.62 -0.1 0.1 0.78 -0.78 c-0.02 0 -0.04 0 -0.04 -0.02 c0 -0.06 0.42 -0.3 0.42 -0.52 c-0.04 0 0.56 -1 0.56 -1.18 c0 -0.62 0.36 -0.96 0.52 -1.04 c0.36 0.02 0.58 -0.28 0.58 0.78 c0 0.76 -0.1 1.76 -0.18 1.74 c0 0.04 0.02 0.1 0.06 0.16 c0 0.02 -0.08 0.54 -0.08 1.76 c0 0.48 -0.16 0.32 -0.3 0.62 c-1.12 0 -1.12 -0.06 -1.62 -0.06 c-0.24 0 -0.6 0.06 -0.7 0.06 l-1.34 -0.04 c-0.28 0 -0.62 -0.02 -0.78 -0.02 c0.02 0 -0.36 0.04 -0.58 0.04 c-0.1 0 -0.16 -0.02 -0.2 -0.08 c-0.02 0 -0.38 0.08 -0.42 0.1 c0 0 -0.02 -0.04 -0.2 -0.04 c-0.1 0 -0.38 0.04 -0.64 0.04 c-0.14 0 -0.16 -0.04 -0.28 -0.04 c-0.04 0 -0.78 0.08 -1.04 0.08 c-0.06 0 -0.36 -0.04 -0.42 -0.04 z M57.840999999999994 19.72 c-0.04 0 -0.04 0.24 -0.04 0.28 l0.04 0 l0 -0.28 z M58.501 19.72 c0 0.04 0.08 0.2 0.16 0.28 c0.04 -0.04 0.08 -0.22 0.1 -0.2 c0 -0.02 -0.12 -0.08 -0.22 -0.08 l-0.04 0 z M58.42099999999999 19.92 c-0.02 0 -0.02 0.02 -0.02 0.04 s0 0.04 0.02 0.04 s0.02 -0.02 0.02 -0.04 s0 -0.04 -0.02 -0.04 z M64.041 19.86 l0 0.04 l0.04 -0.04 l-0.04 0 z M64.461 19.8 c0 0.06 0.02 0.06 0.04 0.1 c0.1 0 0.08 -0.06 0.12 -0.14 c-0.06 0 -0.12 0 -0.16 0.04 z M64.701 19.8 l0 0.1 c0.08 0 0.08 -0.04 0.08 -0.1 l-0.08 0 z M65.00099999999999 19.8 l0 0.06 l0.04 0 l0 -0.06 l-0.04 0 z M63.520999999999994 19.8 l0 0.04 l0.04 0.02 z M57.641 19.72 c-0.04 0.02 -0.06 0.02 -0.06 0.02 c0 0.04 0.08 0 0.08 0.1 z M59.480999999999995 19.72 c-0.04 0.02 -0.1 0.02 -0.12 0.04 c0.08 0 0.12 -0.02 0.12 -0.04 z M66.381 19.68 c0 -0.02 0 -0.02 -0.02 -0.02 l0 0.06 c0.02 0 0.02 -0.02 0.02 -0.04 z M65.841 19.56 c-0.06 0 -0.04 0.04 -0.08 0.08 c0.08 0 0.08 -0.06 0.08 -0.08 z M66.701 19.52 c0.02 0.02 0.02 0.1 0.08 0.12 c0 -0.1 0 -0.12 -0.04 -0.16 z M57.660999999999994 19.52 l0.1 0.04 l0.04 -0.04 l-0.04 -0.04 c-0.08 0 -0.08 0 -0.1 0.04 z M69.481 17.36 c-0.02 0 -0.04 0.02 -0.04 0.02 c0 0.02 0.02 0.02 0.04 0.02 s0.02 0 0.02 -0.02 c0 0 0 -0.02 -0.02 -0.02 z M61.840999999999994 16.32 l0 0.1 l0.14 0 c0 -0.04 -0.06 -0.1 -0.1 -0.1 l-0.04 0 z M69.481 16.34 c-0.02 0 -0.04 0.02 -0.04 0.04 s0.02 0.04 0.04 0.04 s0.02 -0.02 0.02 -0.04 s0 -0.04 -0.02 -0.04 z M69.541 15.32 c0 0.1 0 0.2 0.02 0.28 l0.08 0 l0 -0.28 l-0.1 0 z M69.22099999999999 15.26 c0 0.02 0.02 0.08 0.04 0.1 c0.04 0 0.1 -0.02 0.1 -0.04 c0 -0.06 -0.02 -0.08 -0.08 -0.08 c-0.02 0 -0.04 0 -0.06 0.02 z M59.60099999999999 9.14 l0 0.04 l0.04 0 l0 -0.04 l-0.04 0 z M59.60099999999999 7.119999999999999 c0 -0.02 -0.02 -0.02 -0.02 -0.02 c-0.02 0 -0.02 0 -0.02 0.02 s0 0.02 0.02 0.02 c0 0 0.02 0 0.02 -0.02 z M58.20099999999999 5.4 l0 0.04 l0.08 0 c-0.06 -0.04 -0.08 -0.02 -0.08 -0.04 z M57.681 5.16 c-0.02 0 -0.02 0.16 -0.02 0.2 l0.02 -0.08 l0.14 0 c0 -0.08 -0.08 -0.12 -0.14 -0.12 z M58.080999999999996 5.18 c0.04 0.08 0.04 0.1 0.1 0.1 c0 -0.1 -0.06 -0.1 -0.1 -0.1 z M61.10099999999999 5.18 l0 0.04 l0.14 0 l0 -0.04 l-0.14 0 z M63.101 5.18 c0.02 0.04 0.06 0.06 0.08 0.06 s0.04 -0.02 0.06 -0.02 z M64.041 5.119999999999999 c0 0.08 0.4 0.1 0.42 0.1 c-0.06 -0.14 -0.16 -0.08 -0.26 -0.14 c-0.04 0 -0.12 0.04 -0.16 0.04 z M58.92099999999999 5.16 c0 0.04 0.02 0.02 0.12 0.02 l0 -0.06 s-0.08 0.02 -0.12 0.04 z M60.620999999999995 5.16 c-0.02 0 -0.04 0 -0.04 0.02 s0.02 0.04 0.04 0.04 s0.02 -0.02 0.02 -0.04 s0 -0.02 -0.02 -0.02 z M61.620999999999995 5.16 c0 0 -0.02 0 -0.02 0.02 s0.02 0.04 0.02 0.04 s0.02 -0.02 0.02 -0.04 s-0.02 -0.02 -0.02 -0.02 z M63.400999999999996 5.18 c0 -0.02 -0.02 -0.02 -0.04 -0.02 s-0.04 0 -0.04 0.02 s0.02 0.04 0.04 0.04 s0.04 -0.02 0.04 -0.04 z M88.53499999999998 19.72 l0 -0.1 l0.24 -0.24 l0.98 0 l0.08 0.04 l0.46 0.04 c0.08 0.04 0.18 -0.26 0.24 -0.26 l0 -2.42 c0 -0.02 -0.04 -0.26 -0.04 -0.28 c0 0 0.04 -0.48 0.04 -0.58 c0.04 -0.06 -0.06 0.08 -0.06 -0.32 c0 -0.04 0.06 -0.08 0.06 -0.16 c0 -0.14 -0.04 -0.22 -0.04 -0.32 c0 -0.04 0.04 -0.18 0.04 -0.26 l0 -1.26 c0 -0.18 -0.06 -0.5 -0.06 -0.74 l0.02 -1.72 c-0.02 -0.08 -0.02 -0.6 -0.02 -0.7 c0 -0.06 0.02 -0.52 0.02 -0.58 c0 -0.02 -0.02 -1.04 -0.02 -1.16 c0 -1.24 0.02 -1.46 0.02 -2 c0 -0.24 0 -0.76 -0.02 -0.92 l-0.12 -0.14 s-0.4 -0.02 -0.56 -0.02 c-0.26 0 -0.46 0.06 -0.7 0.06 c-0.22 -0.04 -0.44 0.12 -0.64 -0.34 c0 -0.18 0.04 -0.4 0.22 -0.44 c4.08 0 4.5 0.04 6.12 0.04 c3.88 0 3.66 -0.04 5.28 -0.04 c0.2 0 0.42 3.66 0.42 3.84 c0 0.02 0.02 0.02 0.02 0.04 c0 0.24 -0.36 0.42 -0.48 0.42 c-0.26 0 -0.4 -0.28 -0.48 -0.6 c0.08 0 -0.86 -1.54 -0.82 -1.46 c-0.26 -0.26 -0.28 -0.3 -0.44 -0.5 c0 -0.18 -0.86 -0.58 -0.96 -0.72 c0 0.02 -0.02 0.02 -0.02 0.02 c-0.06 0 -0.12 -0.24 -0.54 -0.24 c-0.56 0 -0.52 -0.08 -1.38 -0.08 l0 -0.04 l-0.62 0 l-0.04 0.04 l-0.26 0 l0.14 -0.04 c-0.46 0 -0.66 -0.06 -0.78 -0.06 c-0.18 0 -0.4 0.1 -0.4 0.68 c0 1.12 0.04 1.72 0.04 2 c0 0.3 -0.04 1.18 -0.04 1.3 c0 0.34 0.08 0.62 0.08 0.86 c-0.04 0 -0.08 0.14 -0.08 0.2 s0.08 0.44 0.08 0.62 c0 0.04 -0.04 0.1 -0.04 0.12 c0 0.06 -0.06 0.82 0.14 0.82 c0.46 0 0.8 -0.12 1.16 -0.12 l0 0.02 c0.06 0 0.24 -0.3 0.38 -0.3 c0.24 0 0.28 -0.08 0.54 -0.34 l0 0.02 c-0.02 0 0.34 -0.72 0.54 -0.96 c0.34 -0.16 -0.12 -1 0.88 -1 l0.06 0.04 c0 0.18 0.1 0.24 0.1 0.8 c-0.02 0.16 -0.04 0.68 -0.04 0.64 c0 0.22 0.04 0.56 0.04 0.84 c0 0.24 0 0.24 -0.04 0.36 c0 0.2 0.04 0.46 0.04 0.52 c0 0.26 -0.04 0.26 -0.04 0.46 c0 0.16 0.04 1.24 0.04 1.38 c0 0.08 -0.04 0.16 -0.04 0.28 l0 0.74 c0.02 0.02 -0.16 0.16 -0.26 0.16 c-0.64 0 -0.1 -0.12 -0.82 -1.42 c-0.56 -0.98 -0.74 -0.94 -1.06 -1.22 c0.02 0 -0.58 -0.2 -0.72 -0.2 l-0.06 -0.1 l-0.64 -0.02 c-0.3 0.16 -0.26 1 -0.26 0.68 c0 0.08 0.06 0.28 0.06 0.58 c0 0.14 -0.02 0.38 -0.06 0.6 c0 0.02 0.06 0.2 0.06 0.32 c0 0.2 -0.04 0.18 -0.04 0.26 c0 0.14 0.04 0.22 0.04 0.28 c-0.06 0.78 -0.08 2.18 -0.08 2.42 c0 1.26 -0.02 1.36 0.28 1.66 l0.86 0 c0.08 -0.02 0.18 -0.08 0.26 -0.08 c0.02 0 1.2 0.04 1.36 0.04 s0.02 -0.1 0.44 -0.1 c0.76 -0.3 0.72 -0.04 1.36 -0.54 c-0.02 0 -0.02 -0.02 -0.02 -0.02 c0 -0.06 0.5 -0.28 0.76 -0.6 c-0.02 0 -0.02 -0.02 -0.02 -0.02 c0 -0.3 0.88 -0.52 0.88 -1.24 c0 -0.08 0.36 -0.54 0.36 -0.66 c0.5 -1.26 0.18 -1.2 0.82 -1.2 c0.02 0 0.24 0 0.24 0.26 c0 1.3 -0.2 2.9 -0.2 3.8 c0 0.14 0.02 0.28 0.02 0.42 c0 0.24 -0.08 0.44 -0.56 0.44 l-7.7 0 c-1.16 0 -1.58 0.04 -3.72 0.04 c-0.38 -0.12 -0.28 -0.28 -0.28 -0.32 z M88.73499999999999 19.8 l0 -0.02 l0 0.06 c0 0.06 0.02 0.14 0.2 0.14 c0.04 0 0.1 0 0.16 -0.02 l0 -0.04 l-0.16 -0.18 c-0.02 0.04 -0.04 0.08 -0.08 0.1 c-0.02 0 -0.08 -0.02 -0.12 -0.06 l0 0.02 z M95.835 19.88 l0.02 0.04 c0.02 -0.02 0.02 -0.02 0.02 -0.08 z M95.05499999999999 19.84 c-0.06 0 -0.08 0 -0.1 0.04 l0.1 0 l0 -0.04 z M89.43499999999999 19.62 c0.04 0 0.12 0.04 0.14 0.04 c0.18 0 0.12 0 0.18 -0.04 c-0.04 0 -0.18 -0.04 -0.2 -0.04 c-0.08 0 -0.08 0 -0.12 0.04 z M100.41499999999999 19.62 c0.02 0.06 0.08 0.04 0.12 0.04 c-0.02 -0.04 -0.06 -0.04 -0.12 -0.04 z M90.975 19.62 c0 -0.02 -0.02 -0.02 -0.04 -0.02 s-0.04 0 -0.04 0.02 s0.02 0.04 0.04 0.04 s0.04 -0.02 0.04 -0.04 z M88.85499999999999 19.56 l0 0.02 l0.2 0 c-0.04 -0.02 -0.16 -0.02 -0.2 -0.02 z M90.695 16.9 l-0.02 -0.02 c-0.02 0 -0.02 0.02 -0.02 0.02 c0 0.02 0 0.04 0.02 0.04 c0 0 0.02 -0.02 0.02 -0.04 z M90.65499999999999 16.04 l0 0.08 c0.02 0 0.02 -0.02 0.02 -0.04 s0 -0.04 -0.02 -0.04 z M90.695 15.92 c0.02 0.04 0.06 0.04 0.12 0.04 c0 -0.04 0.02 -0.16 -0.04 -0.2 c0 0.04 -0.08 0.1 -0.08 0.16 z M90.81499999999998 15.54 c0 0.02 0 0.04 0.02 0.06 l0.02 -0.06 l-0.04 0 z M100.81499999999998 15.54 c-0.02 0 -0.04 0.02 -0.04 0.04 c0 0 0.02 0.02 0.04 0.02 s0.02 -0.02 0.02 -0.02 c0 -0.02 0 -0.04 -0.02 -0.04 z M100.91499999999999 15.5 c-0.02 0 -0.02 0.02 -0.02 0.04 c0 0 0 0.02 0.02 0.02 l0 -0.06 z M90.695 12.48 c-0.02 0 -0.04 0.02 -0.04 0.04 c0 0 0.02 0.02 0.04 0.02 s0.02 -0.02 0.02 -0.02 c0 -0.02 0 -0.04 -0.02 -0.04 z M90.835 12.48 c0 -0.02 0 -0.02 -0.02 -0.02 l0 0.04 c0.02 0 0.02 0 0.02 -0.02 z M90.695 11.6 l-0.02 -0.02 c-0.02 0 -0.02 0.02 -0.02 0.02 c0 0.02 0 0.04 0.02 0.04 c0 0 0.02 -0.02 0.02 -0.04 z M97.07499999999999 9.92 c0 -0.02 -0.02 -0.02 -0.04 -0.02 c0 0 -0.02 0 -0.02 0.02 s0.02 0.04 0.02 0.04 c0.02 0 0.04 -0.02 0.04 -0.04 z M99.91499999999999 8.96 c-0.02 0 -0.04 0.02 -0.04 0.04 c0 0 0.02 0.02 0.04 0.02 s0.02 -0.02 0.02 -0.02 c0 -0.02 0 -0.04 -0.02 -0.04 z M92.95499999999998 7.960000000000001 c-0.02 0.02 -0.02 0.06 -0.02 0.08 l0.22 0 c-0.02 -0.04 -0.1 -0.08 -0.2 -0.08 z M90.65499999999999 7.18 l0 0.08 c0.02 0 0.02 -0.02 0.02 -0.04 s0 -0.04 -0.02 -0.04 z M90.65499999999999 6.16 l0 0.08 c0.02 0 0.02 -0.02 0.02 -0.04 s0 -0.04 -0.02 -0.04 z M100.115 5.42 l0 0.2 l0.02 -0.1 c0 -0.04 0 -0.06 -0.02 -0.1 z M89.95499999999998 5.539999999999999 c-0.02 0 -0.02 0.02 -0.02 0.04 s0 0.04 0.02 0.04 s0.02 -0.02 0.02 -0.04 s0 -0.04 -0.02 -0.04 z M91.63499999999999 5.58 c0 -0.02 -0.02 -0.02 -0.02 -0.02 c-0.02 0 -0.02 0 -0.02 0.02 s0 0.04 0.02 0.04 c0 0 0.02 -0.02 0.02 -0.04 z M89.395 5.380000000000001 c-0.18 0 -0.08 0.14 -0.14 0.16 c0.12 0 0.14 -0.02 0.14 -0.06 c0 -0.02 -0.02 -0.04 -0.02 -0.06 s0.02 -0.02 0.02 -0.04 z M89.87499999999999 5.48 l0.06 0.04 l0.02 -0.04 l-0.04 -0.02 z M88.99499999999999 5.42 c-0.02 0 -0.02 0.02 -0.02 0.04 c0 0 0 0.02 0.02 0.02 s0.02 -0.02 0.02 -0.02 c0 -0.02 0 -0.04 -0.02 -0.04 z M89.195 5.34 l-0.14 0.04 l0.14 0 l0 -0.04 z M90.975 5.34 c-0.02 0 -0.04 0.02 -0.04 0.02 c0 0.02 0.02 0.02 0.04 0.02 c0 0 0.02 0 0.02 -0.02 z M92.99499999999999 5.34 l0 0.04 l0.02 0 z M89.29499999999999 5.34 l-0.04 0 c0 0.02 0 0.04 0.02 0.04 c0 0 0.02 -0.02 0.02 -0.04 z M89.755 5.32 c-0.04 0 -0.04 0.04 -0.04 0.04 c0.02 0 0.02 -0.02 0.04 -0.04 z M90.615 5.34 l-0.04 0 c0 0.02 0 0.04 0.02 0.04 c0 0 0.02 -0.02 0.02 -0.04 z M93.87499999999999 5.32 c-0.04 0 -0.08 0.02 -0.12 0.02 l0.14 0 z M88.695 5.32 c0 0 0 -0.02 -0.02 -0.02 l0 0.04 c0.02 0 0.02 0 0.02 -0.02 z M94.73499999999999 5.26 c0 0.08 0.02 0.04 0.04 0.06 c0 0 0.02 0 0.04 -0.02 l-0.04 -0.08 z M100.035 5.0600000000000005 l0 0.24 l0.04 0 c0 -0.06 0.02 -0.24 -0.04 -0.24 z M89.51499999999999 5.1 c-0.02 0 -0.04 0.02 -0.04 0.02 c0 0.02 0.02 0.02 0.04 0.02 s0.02 0 0.02 -0.02 c0 0 0 -0.02 -0.02 -0.02 z M88.85499999999999 5.1 l-0.02 -0.04 z M89.09499999999998 5.02 c-0.04 0.02 -0.06 0.04 -0.06 0.06 l0.02 0.02 l0.04 0 l0 -0.08 z M108.582 19.42 c-0.18 0 -0.28 0.04 -0.4 0.06 c-0.18 0 -0.14 0 -0.16 -0.02 l-0.06 0.02 c0 0.06 0.02 0.06 0.06 0.08 c0 -0.02 -0.06 0.04 -0.1 0.12 l0.02 0 c0 0.02 -0.64 0.52 -0.74 0.52 c-0.46 0 -0.46 -0.54 -0.46 -0.62 c0 -0.04 0 -0.04 0.02 -0.1 c0 -2.24 -0.1 -1.9 -0.1 -3.24 c0 0 0.02 -0.02 0.02 -0.04 c0 -0.06 -0.04 -0.16 -0.04 -0.26 c0 -0.18 0.08 -0.3 0.6 -0.3 c0.06 0 0.14 0.06 0.32 0.38 c0 0.1 0.36 0.4 0.4 0.58 c-0.02 0.02 -0.04 0.04 -0.04 0.06 c0 0.08 0.3 0.2 0.3 0.32 c0 0.02 -0.02 0.04 -0.02 0.04 c0 0.12 0.2 0.22 0.2 0.28 c0.24 0.44 0.26 0.42 0.58 0.74 c0.1 0 0.84 1.32 1.4 1.32 c0.72 0.06 0.86 0.32 1.62 0.32 c0.42 0 0.36 -0.02 0.5 -0.1 c-0.04 0.04 -0.02 0.04 -0.04 0.04 c0 0 0.14 -0.2 0.8 -0.2 c0.3 0 0.88 -0.56 1 -0.64 c0.04 -0.04 0.24 -0.12 0.24 -0.16 c0 -0.12 0.42 -0.7 0.48 -0.76 c-0.02 -0.04 -0.02 -0.08 -0.02 -0.1 c0 -0.3 0.32 0.16 0.32 -1.7 c-0.02 -0.06 -0.08 -0.7 -0.22 -0.82 c-0.06 0 -0.06 -0.46 -0.54 -0.78 c0 -0.02 0.02 -0.12 0.02 -0.16 c-0.78 -0.04 -0.38 -0.44 -0.9 -0.44 c-0.98 0 -0.2 -0.3 -1.26 -0.3 c-0.1 -0.1 -0.98 -0.08 -1.18 -0.2 c-0.04 0 -0.18 0.04 -0.22 0.04 c-0.24 0 -0.04 -0.2 -0.58 -0.2 c-1.82 -0.1 -0.84 -0.44 -1.46 -0.44 l0 -0.04 c0.06 0 0.14 -0.02 0.2 0.04 c0 0 0.1 -0.04 0.1 -0.06 c0 0 -0.04 -0.04 -0.04 -0.06 l-0.62 0 c-0.2 -0.18 -0.18 -0.3 -0.34 -0.34 c0 -0.02 -0.22 0.02 -0.56 -0.44 c0 -0.14 -0.44 -0.66 -0.54 -0.74 c-0.18 -0.94 -0.4 -1.5 -0.4 -2.22 c0.04 -0.22 0 -0.5 0.08 -0.64 l0 0.02 c0.02 0 0.1 -0.68 0.16 -0.64 c-0.02 0 -0.04 -0.02 -0.04 -0.04 c0 -0.16 0.42 -0.6 0.42 -0.76 c-0.02 -0.02 -0.02 -0.04 -0.02 -0.04 c0 -0.14 0.32 -0.28 0.32 -0.34 s0.26 -0.48 0.38 -0.56 c-0.02 0.02 -0.02 0.04 -0.02 0.04 c-0.02 0 0.98 -0.66 1 -0.68 c1.22 -0.2 0.16 -0.54 1.52 -0.54 l1.96 0 c0.04 0 0.46 0 0.66 0.16 c0.82 0.04 0.68 0.52 1.04 0.52 c0.66 0 0.48 -0.04 0.68 -0.24 c-0.08 -0.1 0.54 -0.02 0.6 -0.28 l0.26 0 c0.04 0 0.2 0.16 0.22 0.2 c0.06 2.48 0.18 2.42 0.18 3.72 c0 0.1 -0.18 0.16 -0.26 0.32 l-0.28 0 l0 -0.08 c-0.06 0 -0.48 -0.28 -0.48 -0.5 l0 0.02 c-0.02 0 -0.16 -0.5 -0.38 -0.58 l0.02 0 c0 -0.06 -0.26 -0.26 -0.26 -0.4 c-0.3 -0.44 -0.26 -0.42 -0.5 -0.66 l0.02 0 c0 -0.02 -0.5 -0.32 -0.5 -0.46 c0 -0.3 -0.74 -0.66 -0.9 -0.82 c0.06 -0.12 -0.52 -0.28 -1.1 -0.28 c-0.02 0 -0.04 0.02 -0.06 0.02 c-0.2 0 -0.12 -0.34 -0.18 -0.34 c-0.04 0.04 -0.06 0.04 -0.08 0.08 c-0.02 0 -0.1 -0.02 -0.16 -0.04 c-0.12 0.44 -0.32 0.2 -0.38 0.32 c-0.12 -0.06 -0.04 -0.12 -0.12 -0.14 c-0.42 0.2 -0.3 0.18 -1.22 0.64 c-0.6 1.18 -0.28 -0.28 -0.94 1.52 l0 0.88 l0 -0.02 c0.02 0 0.1 0.78 0.28 0.88 c0.04 0.06 0.3 0.26 0.38 0.42 c0.14 0 0.32 0.52 0.9 0.52 c0.24 0.26 1.18 0.2 2.14 0.44 c0.28 0.08 1.74 0.08 2.08 0.48 l-0.02 0 c0 0.04 0.48 0.08 0.56 0.14 c0 -0.04 0.96 0.56 0.96 0.68 c0 0.02 0 0.02 -0.02 0.02 c0.34 0 0.68 0.76 0.82 0.86 c0.1 0.72 0.38 0.5 0.38 1.06 c0.24 0.76 0.2 0.94 0.2 1.88 c-0.06 0.06 -0.1 0.76 -0.2 0.8 c0 1.02 -0.52 0.96 -0.52 1.4 l-0.26 0.24 c0 0.04 -0.02 0.12 -0.02 0.12 c-0.4 0.36 -0.26 0.42 -0.44 0.5 c-0.06 0 -0.16 0.3 -0.5 0.4 c-0.38 0.58 -0.54 0.12 -0.94 0.7 c-1.8 0 0.04 0.44 -1.96 0.44 c-2.28 0 -1.48 -0.06 -2.22 -0.24 c-0.02 0 -0.02 0.02 -0.04 0.02 c-0.12 0 -0.3 -0.16 -0.46 -0.16 c0 -0.02 -0.3 -0.06 -0.3 -0.1 c0 0.02 0.02 0.02 0.02 0.02 c0 -0.02 -0.28 -0.42 -0.5 -0.42 c-0.04 0 -0.08 0.02 -0.12 0.04 z M112.38199999999999 20.14 c-0.02 0 -0.02 0.02 -0.02 0.04 c0 0 0 0.02 0.02 0.02 s0.02 -0.02 0.02 -0.02 c0 -0.02 0 -0.04 -0.02 -0.04 z M110.88199999999999 20.1 c-0.02 0 -0.02 0.02 -0.02 0.02 c0 0.02 0 0.02 0.02 0.02 s0.02 0 0.02 -0.02 c0 0 0 -0.02 -0.02 -0.02 z M112.782 20.1 c-0.02 0 -0.04 0.02 -0.04 0.04 s0.02 0.04 0.04 0.04 s0.02 -0.02 0.02 -0.04 s0 -0.04 -0.02 -0.04 z M112.342 20.06 c-0.02 0 -0.04 0.02 -0.04 0.04 s0.02 0.04 0.04 0.04 s0.02 -0.02 0.02 -0.04 s0 -0.04 -0.02 -0.04 z M112.782 20.02 c-0.04 0 -0.06 0 -0.06 0.02 l0.02 0.02 l0.04 0 l0 -0.04 z M111.322 20.02 c-0.02 0 -0.02 0 -0.02 0.02 c0 0 0 0.02 0.02 0.02 s0.02 -0.02 0.02 -0.02 c0 -0.02 0 -0.02 -0.02 -0.02 z M112.782 19.88 l0 0.1 c0.04 -0.02 0.08 -0.06 0.1 -0.1 l-0.1 0 z M113.322 19.82 c-0.18 0 -0.18 0.06 -0.18 0.12 c0.02 0 0.06 -0.02 0.1 -0.04 c0.02 0 0.08 0.02 0.12 0.04 l0.08 -0.04 s0 -0.08 -0.12 -0.08 z M110.942 19.84 l0 0.04 l0.08 0 l0 -0.04 l-0.08 0 z M111.942 19.84 c-0.02 0 -0.02 0.02 -0.02 0.04 c0 0 0 0.02 0.02 0.02 s0.02 -0.02 0.02 -0.02 c0 -0.02 0 -0.04 -0.02 -0.04 z M112.502 19.84 c-0.02 0 -0.04 0.02 -0.04 0.04 c0 0 0.02 0.02 0.04 0.02 s0.02 -0.02 0.02 -0.02 c0 -0.02 0 -0.04 -0.02 -0.04 z M110.66199999999999 19.72 c-0.02 0 -0.04 0 -0.04 0.02 l0.04 0 l0.02 0 c0 -0.02 0 -0.02 -0.02 -0.02 z M110.042 19.66 c-0.02 0 -0.04 0 -0.06 0.02 z M109.982 19.58 c-0.02 0 -0.04 0.02 -0.04 0.04 s0.02 0.04 0.04 0.04 s0.02 -0.02 0.02 -0.04 s0 -0.04 -0.02 -0.04 z M110.042 19.56 c-0.02 0 -0.02 0.02 -0.02 0.04 c0 0 0 0.02 0.02 0.02 s0.02 -0.02 0.02 -0.02 c0 -0.02 0 -0.04 -0.02 -0.04 z M107.182 19.52 c-0.02 0 -0.04 0.02 -0.04 0.04 c0 0 0.02 0.02 0.04 0.02 l0.02 -0.02 c0 -0.02 -0.02 -0.04 -0.02 -0.04 z M109.982 19.52 c-0.02 0 -0.04 0.02 -0.04 0.04 c0 0 0.02 0.02 0.04 0.02 s0.02 -0.02 0.02 -0.02 c0 -0.02 0 -0.04 -0.02 -0.04 z M106.902 19.46 c-0.02 0 -0.04 0.02 -0.04 0.02 c0 0.02 0.02 0.04 0.04 0.04 c0 0 0.02 -0.02 0.02 -0.04 z M110.142 19.48 l-0.04 0 c0 0.02 0 0.04 0.02 0.04 c0 0 0.02 -0.02 0.02 -0.04 z M114.062 19.46 c-0.02 0 -0.02 0.02 -0.02 0.02 l0.04 0 c0 0.02 0 -0.02 -0.02 -0.02 z M106.902 19.12 l0 -0.08 l0 0.08 z M114.982 19.08 c-0.02 0 -0.04 0.02 -0.04 0.04 l0.06 0 c0 -0.02 -0.02 -0.04 -0.02 -0.04 z M115.262 18.84 l0 0.04 l0.02 0 z M115.202 18.78 c-0.02 0 -0.04 0.02 -0.04 0.04 c0 0 0.02 0.02 0.04 0.02 s0.02 -0.02 0.02 -0.02 c0 -0.02 0 -0.04 -0.02 -0.04 z M115.322 18.8 l0.04 -0.02 z M115.442 18.68 l0 0 l-0.04 0.04 c0.02 -0.02 0.02 -0.04 0.04 -0.04 z M106.96199999999999 18.66 c-0.02 0 -0.04 0 -0.04 0.02 c0 0 0.04 0 0.04 -0.02 l0 0 z M106.902 18.46 l0 0.12 l0.02 0 c0 -0.02 0 -0.1 -0.02 -0.12 z M116.062 18.02 c-0.02 0 -0.02 0.02 -0.02 0.02 s0 0.02 0.02 0.02 s0.02 -0.02 0.02 -0.02 s0 -0.02 -0.02 -0.02 z M115.442 16.38 l0.04 0.02 l0.04 -0.02 l-0.08 0 z M106.902 16.06 l-0.04 0 c0 0.02 0 0.04 0.02 0.04 c0 0 0.02 -0.02 0.02 -0.04 z M116.862 15.719999999999999 l0 -0.02 c-0.02 0 -0.02 0 -0.02 0.02 s0 0.04 0.02 0.04 l0 -0.04 z M108.46199999999999 12.34 c-0.02 0 -0.04 0.02 -0.04 0.04 s0.02 0.04 0.04 0.04 s0.02 -0.02 0.02 -0.04 s0 -0.04 -0.02 -0.04 z M107.642 11.48 c-0.02 0 -0.04 0.02 -0.04 0.04 c0 0 0.02 0.02 0.04 0.02 l0.02 -0.02 c0 -0.02 -0.02 -0.04 -0.02 -0.04 z M114.062 11.28 c-0.02 0 -0.02 0.02 -0.02 0.04 c0 0 0 0.02 0.02 0.02 s0.02 -0.02 0.02 -0.02 c0 -0.02 0 -0.04 -0.02 -0.04 z M107.402 11.2 l0 0.04 l0.04 -0.04 l-0.04 0 z M109.30199999999999 11.02 c0 0 -0.02 0 -0.02 0.02 l0.04 0 c0 -0.02 -0.02 -0.02 -0.02 -0.02 z M111.282 10.76 c-0.04 0 -0.14 0.04 -0.14 0.06 s0.02 0.02 0.02 0.02 c0.04 0 0.08 -0.04 0.12 -0.08 z M107.02199999999999 10.18 c-0.02 0 -0.04 -0.02 -0.04 0.1 c0 0.02 0.02 0.06 0.02 0.06 c0.02 0 0.04 -0.04 0.04 -0.06 c0 -0.04 -0.02 -0.08 -0.02 -0.1 z M106.96199999999999 9.98 c-0.02 0 -0.04 0.02 -0.04 0.04 s0.02 0.04 0.04 0.04 l0 -0.08 z M115.52199999999999 6.460000000000001 c-0.02 0 -0.04 0.02 -0.04 0.04 c0 0 0.02 0.02 0.04 0.02 s0.02 -0.02 0.02 -0.02 c0 -0.02 0 -0.04 -0.02 -0.04 z M115.80199999999999 6.460000000000001 c-0.02 0 -0.02 0.02 -0.02 0.04 c0 0 0 0.02 0.02 0.02 s0.02 -0.02 0.02 -0.02 c0 -0.02 0 -0.04 -0.02 -0.04 z M115.88199999999999 6.460000000000001 c-0.02 0 -0.04 0.02 -0.04 0.04 c0 0 0.02 0.02 0.04 0.02 l0.02 -0.02 c0 -0.02 -0.02 -0.04 -0.02 -0.04 z M111.402 6.02 l0 -0.22 c0.02 -0.02 0.06 -0.04 0.08 -0.06 l0.04 0.04 c0 0.06 -0.08 0.16 -0.08 0.28 z M115.80199999999999 5.9399999999999995 c-0.02 0 -0.02 0.02 -0.02 0.04 c0 0 0 0.02 0.02 0.02 s0.02 -0.02 0.02 -0.02 c0 -0.02 0 -0.04 -0.02 -0.04 z M109.24199999999999 5.84 c-0.1 0.02 -0.1 0.1 -0.1 0.1 c0.02 -0.02 0.1 -0.06 0.1 -0.08 l0 -0.02 z M108.762 5.74 c0 0.04 0.06 0.06 0.1 0.06 c-0.02 -0.06 -0.1 -0.06 -0.12 -0.06 l0.02 0 z M115.722 5.779999999999999 c0.02 0.02 0.04 0.02 0.06 0.02 c0.08 0 0.1 -0.06 0.1 -0.12 z M109.082 5.619999999999999 c-0.06 0 -0.04 0.06 -0.04 0.12 l0.04 0 l0 -0.12 z M113.042 5.4399999999999995 c-0.06 0.1 -0.04 0.18 -0.04 0.26 c0.08 -0.02 0.1 -0.12 0.1 -0.22 c-0.02 -0.02 -0.02 -0.04 -0.06 -0.04 z M109.082 5.52 c-0.02 0 -0.04 0 -0.04 0.02 l0.04 0 l0.02 0 c0 -0.02 0 -0.02 -0.02 -0.02 z M115.52199999999999 5.48 c0 -0.02 -0.02 -0.02 -0.06 -0.02 c-0.02 0 -0.04 0 -0.04 0.02 s0.02 0.04 0.04 0.04 c0.04 0 0.06 -0.02 0.06 -0.04 z M115.602 5.42 c-0.02 0 -0.04 0.02 -0.04 0.02 l0.02 0 l0.02 0 l0 -0.02 z M113.622 5.42 l-0.02 -0.02 z M112.38199999999999 5.4 c0 -0.02 -0.02 -0.02 -0.02 -0.02 s-0.02 0 -0.02 0.02 s0.02 0.02 0.02 0.02 s0.02 0 0.02 -0.02 z M115.102 5.4 c0 -0.02 -0.02 -0.02 -0.02 -0.02 c-0.02 0 -0.02 0 -0.02 0.02 s0 0.02 0.02 0.02 c0 0 0.02 0 0.02 -0.02 z M115.362 5.359999999999999 c-0.02 0 -0.04 0.02 -0.04 0.04 c0 0 0.02 0.02 0.04 0.02 s0.02 -0.02 0.02 -0.02 c0 -0.02 0 -0.04 -0.02 -0.04 z M115.80199999999999 5.32 l0 0.08 l0.04 -0.04 z M109.722 5.16 c0 0.06 0.04 0.14 0.04 0.2 l0.04 -0.1 s-0.02 -0.08 -0.04 -0.14 z M113.24199999999999 5.24 c-0.02 0 -0.04 0.02 -0.04 0.02 s0.02 0.02 0.04 0.02 s0.02 -0.02 0.02 -0.02 s0 -0.02 -0.02 -0.02 z M115.422 5.119999999999999 c-0.06 0.02 -0.08 0.08 -0.1 0.14 c0.12 0 0.1 -0.06 0.1 -0.14 z M115.80199999999999 5.24 l0 0.02 l0.04 0 z M115.80199999999999 5.119999999999999 c-0.02 0 -0.02 0.02 -0.02 0.02 c0 0.02 0 0.02 0.02 0.02 s0.02 0 0.02 -0.02 c0 0 0 -0.02 -0.02 -0.02 z M111.622 5.039999999999999 c-0.02 0.06 0.1 0.08 0.1 0.08 c0.04 -0.06 0.24 0.02 0.22 -0.08 l-0.32 0 z M112.88199999999999 5.08 l-0.04 0 c0 0.02 0 0.04 0.02 0.04 c0 0 0.02 -0.02 0.02 -0.04 z M110.502 5 l0 0.04 l0.08 0 l0 -0.04 l-0.08 0 z M110.88199999999999 4.960000000000001 c-0.06 0 -0.14 0.06 -0.16 0.08 l0.16 0 l0 -0.08 z M112.38199999999999 5 l0 0.04 l0.12 0 z M125.909 20.1 c0 -0.04 0 -0.08 0.02 -0.12 c0 -0.04 -0.02 -0.08 -0.04 -0.08 c0 0.08 -0.1 0.16 -0.12 0.16 c-0.08 -0.08 -0.18 -0.16 -0.22 -0.26 c0 -0.66 1.82 -0.18 2.14 -0.52 l-0.04 -1.88 l0 -4.78 l0.04 -0.04 c0 -0.74 -0.08 -1.34 -0.08 -2 c0 -1.02 0.08 -2.7 0.08 -3.34 c0 -0.92 -0.02 -1.3 -0.26 -1.64 l-0.24 0 l0 0.08 c-1.16 0 -0.92 0.18 -1.38 0.38 c0.04 0 -0.5 0.06 -0.5 0.32 l0.02 0.02 c0 0.04 -0.46 0.04 -0.46 0.34 c-0.46 0 -0.96 1.26 -1.18 1.48 c0 0.18 -0.42 0.62 -0.42 1.02 l0 -0.02 s-0.02 0.76 -0.42 0.76 c-0.32 0 -0.44 0.02 -0.52 -0.22 c0 -1.58 0.24 -0.94 0.24 -4.56 c4.82 -0.24 9.5 -0.26 11.84 -0.26 c0.34 0 0.64 0.02 0.88 0.02 c0.1 0 0.38 -0.1 0.38 0.6 c0 0.16 0 0.12 -0.04 0.18 c0.08 0.38 -0.02 1.02 0.14 1.42 c-0.02 0.02 -0.06 0.2 -0.06 0.3 c0 0.32 0.18 1.2 0.18 1.94 c0 0.5 -0.16 0.52 -0.48 0.52 c-0.22 0 -0.64 -1.1 -0.74 -1.42 c0.18 0.02 -0.22 -0.02 -0.22 -0.4 c-0.46 -0.62 -0.3 -0.6 -0.68 -0.98 c-0.32 -0.64 -0.46 -0.4 -0.74 -0.7 l0 0.02 c0.02 0 -0.16 -0.38 -0.54 -0.38 c-0.02 -0.18 -0.24 -0.08 -0.32 -0.26 c-0.72 -0.04 -0.66 -0.24 -0.88 -0.24 l-0.06 0.02 c-0.42 0 -0.28 0 -0.4 -0.02 c-0.04 0 -0.08 0.02 -0.08 0.02 c0 0.02 0.02 0.04 0.02 0.04 c0 0.1 -0.22 0.04 -0.22 0.5 c0 0.74 0.06 2.58 0.06 4.62 l0 3.8 c0 0.04 -0.04 0.22 -0.04 0.24 c0 -0.02 0 0.1 0.04 0.16 c0 0.1 0.04 1.72 0.04 1.98 c0 0.52 -0.04 1.12 -0.04 1.52 c0 0.44 0.02 0.9 0.16 0.96 c0.98 0 1 -0.04 1.46 -0.04 c0.12 0 0.38 0.04 0.38 0.4 c0 0.14 -0.16 0.26 -0.28 0.34 c-0.18 0 -0.6 -0.16 -0.86 -0.16 c-0.12 0 -0.2 0.06 -0.28 0.06 c-0.16 -0.02 -0.32 -0.06 -0.44 -0.06 l-0.04 0.04 c-0.18 0 -0.4 0.06 -0.5 0.06 c-0.04 0 -0.1 -0.04 -0.16 -0.04 c-0.02 0 -0.08 0.02 -0.16 0.06 c-0.2 0 -0.42 0 -0.44 -0.06 l-1.04 0 s-0.04 0.06 -0.08 0.06 c0.08 -0.02 -0.12 0.06 -0.12 -0.06 c-0.16 0 -0.28 0.08 -0.48 0.08 c-0.14 0 -0.24 -0.02 -0.3 -0.1 l0.06 -0.04 l-0.34 0 c0 0.08 0 0.16 -0.04 0.2 l-0.04 -0.08 c-0.08 0 -0.08 0.1 -0.14 0.1 c-0.08 0 -0.2 -0.12 -0.22 -0.12 l0.08 -0.06 c0 -0.06 0 -0.08 -0.04 -0.1 l0 0.02 c-0.02 0 -0.04 -0.02 -0.08 -0.02 s-0.1 0.02 -0.12 0.1 l0.04 0.12 l-0.04 0.04 l-0.62 0 z M125.809 19.94 c-0.02 0 -0.04 0.02 -0.04 0.02 c0 0.02 0.02 0.02 0.04 0.02 s0.02 0 0.02 -0.02 c0 0 0 -0.02 -0.02 -0.02 z M127.589 19.9 c-0.02 0 -0.04 0.02 -0.04 0.04 s0.02 0.04 0.04 0.04 c0 0 0.02 -0.02 0.02 -0.04 s-0.02 -0.04 -0.02 -0.04 z M125.749 19.88 l0 0.02 l0.02 0 z M128.169 19.88 l-0.04 0.02 l0.08 0 z M127.969 19.88 c0 -0.02 -0.02 -0.02 -0.04 -0.02 s-0.04 0 -0.04 0.02 s0.02 0.02 0.04 0.02 s0.04 0 0.04 -0.02 z M128.409 19.88 l0 -0.02 c-0.02 0 -0.02 0 -0.02 0.02 s0 0.02 0.02 0.02 l0 -0.02 z M128.549 19.8 c-0.02 0 -0.04 0.02 -0.04 0.04 s0.02 0.04 0.04 0.04 s0.02 -0.02 0.02 -0.04 s0 -0.04 -0.02 -0.04 z M130.769 19.8 l0 0.04 l0.1 0 c-0.02 -0.04 -0.06 -0.04 -0.1 -0.04 z M131.809 19.8 l-0.04 0.04 l0.04 0 l0 -0.04 z M132.00900000000001 19.78 c-0.04 0 -0.04 0.04 -0.04 0.06 l0.04 0 l0 -0.06 z M125.709 19.68 c0 0.04 0 0.08 0.06 0.08 s0.12 -0.02 0.12 -0.04 c0 -0.14 -0.02 -0.1 -0.12 -0.16 c-0.06 0.04 -0.06 0.04 -0.06 0.12 z M126.369 19.68 c-0.04 0.02 -0.1 0.04 -0.1 0.06 s0.04 0.02 0.06 0.02 c0.04 0 0.06 0 0.06 -0.04 z M126.749 19.64 c-0.06 0.04 -0.04 0.08 -0.04 0.12 l0.2 0 c-0.04 -0.06 -0.14 -0.06 -0.16 -0.12 z M127.429 19.76 c0 -0.02 -0.02 -0.02 -0.04 -0.02 s-0.04 0 -0.04 0.02 s0.02 0.02 0.04 0.02 s0.04 0 0.04 -0.02 z M131.649 19.76 l0.02 -0.04 z M127.869 19 c0 0 -0.02 0.02 -0.02 0.04 s0.02 0.04 0.02 0.04 s0.02 -0.02 0.02 -0.04 s-0.02 -0.04 -0.02 -0.04 z M130.549 15.559999999999999 c-0.02 0 -0.04 0.02 -0.04 0.04 s0.02 0.04 0.04 0.04 s0.02 -0.02 0.02 -0.04 s0 -0.04 -0.02 -0.04 z M127.809 12.14 c-0.02 0 -0.04 0.02 -0.04 0.04 s0.02 0.04 0.04 0.04 s0.02 -0.02 0.02 -0.04 s0 -0.04 -0.02 -0.04 z M122.949 9.8 c-0.02 0 -0.04 0.02 -0.04 0.04 c0 0 0.02 0.02 0.04 0.02 s0.02 -0.02 0.02 -0.02 c0 -0.02 0 -0.04 -0.02 -0.04 z M135.669 9.6 c-0.16 0.02 -0.16 0.2 -0.16 0.24 c0.12 -0.12 0.16 -0.12 0.16 -0.24 z M123.009 9.54 l0 0.14 c0.02 -0.02 0.02 -0.1 0.02 -0.14 l-0.02 0 z M135.149 9.52 l0 0.02 l0.08 0 z M135.669 9.12 l0 0.04 l0.02 0 z M122.649 7.84 c0 0 -0.02 0.04 -0.02 0.08 l0.02 0.04 c0.02 0 0.02 -0.04 0.02 -0.06 s0 -0.04 -0.02 -0.06 z M135.429 7.9 l-0.02 0.02 c0 0.02 0.02 0.04 0.02 0.04 c0.02 0 0.02 -0.02 0.02 -0.04 c0 0 0 -0.02 -0.02 -0.02 z M122.649 7.74 c0 0 -0.02 0 -0.02 0.02 s0.02 0.04 0.02 0.04 c0.02 0 0.02 -0.02 0.02 -0.04 s0 -0.02 -0.02 -0.02 z M122.709 6.1 c-0.04 0.02 -0.06 0.04 -0.08 0.08 c0.08 0 0.08 -0.02 0.08 -0.08 z M125.069 5.9399999999999995 c-0.02 0 -0.04 0 -0.04 0.02 s0.02 0.04 0.04 0.04 s0.02 -0.02 0.02 -0.04 s0 -0.02 -0.02 -0.02 z M125.149 5.74 c0 0 -0.02 0 0.04 0.06 c0.02 -0.02 0.04 -0.04 0.04 -0.06 l-0.08 0 z M125.749 5.640000000000001 c-0.02 0 -0.04 0.02 -0.04 0.04 s0.02 0.04 0.04 0.04 c0 0 0.02 -0.02 0.02 -0.04 s-0.02 -0.04 -0.02 -0.04 z M126.709 5.48 c0 0.02 -0.06 0.1 -0.1 0.12 l0.14 0 c0 -0.04 0.02 -0.08 -0.04 -0.12 z M127.549 5.48 l0 0.04 l0.04 -0.04 l-0.04 0 z M125.069 5.4 c-0.02 0 -0.04 0.02 -0.04 0.04 s0.02 0.04 0.04 0.04 s0.02 -0.02 0.02 -0.04 s0 -0.04 -0.02 -0.04 z M125.169 5.4 c-0.02 0.02 -0.02 0.02 -0.02 0.04 c0 -0.02 0.02 -0.04 0.02 -0.04 z M125.68900000000001 5.359999999999999 l0 0.08 l0.02 -0.04 z M126.209 5.4 c-0.02 0 -0.04 0.02 -0.04 0.02 c0 0.02 0.02 0.02 0.04 0.02 c0 0 0.02 0 0.02 -0.02 z M132.549 5.4 l0 0.04 s0.08 0.04 0.08 -0.04 l-0.08 0 z M122.649 5.4 l0.06 0 l-0.02 0 c0.06 0 0.14 -0.04 0.18 -0.04 c0 0.02 -0.04 -0.14 -0.08 -0.16 c-0.1 0 -0.1 0.14 -0.14 0.2 z M123.389 5.359999999999999 c-0.02 0 -0.02 0.02 -0.02 0.04 l0.04 0 c0 -0.02 0 -0.04 -0.02 -0.04 z M132.049 5.359999999999999 c0.04 0.04 0.08 0.04 0.12 0.04 c-0.02 -0.04 -0.06 -0.04 -0.12 -0.04 z M132.789 5.279999999999999 c-0.02 0 -0.02 0.02 -0.02 0.04 s0 0.04 0.02 0.04 s0.02 -0.02 0.02 -0.04 s0 -0.04 -0.02 -0.04 z M135.349 5.119999999999999 l0.04 0.04 l0 -0.04 l-0.04 0 z M139.536 20.08 c-0.22 0 -0.22 0.02 -0.36 0.02 c-0.04 0 -0.22 -0.16 -0.28 -0.22 c0 0 0.04 -0.3 0.04 -0.36 c0.72 -0.06 1.24 -0.08 1.8 -0.14 c0.06 0 0 -0.38 0.22 -0.38 l0 -0.32 c0.02 0.02 0.04 0.02 0.04 0.02 c0.12 0 0.1 -0.56 0.26 -0.6 c0 -0.04 0.08 -0.72 0.28 -0.88 l0.1 -0.38 s0.68 -2.32 0.94 -2.32 c0.02 0 0.06 0.02 0.08 0.02 c0.1 0 0.12 -0.04 0.12 -0.08 c0 -0.18 -0.16 -0.1 -0.16 -0.24 c0 -0.36 0.36 -1.04 0.4 -1.08 c0.02 -0.82 0.32 -0.62 0.32 -1.14 l0 0.02 c0.02 0 0.18 -0.5 0.26 -0.56 c0 0.04 0.02 0.04 0.02 0.04 s-0.02 0 -0.02 -0.02 c0 -0.12 0.4 -0.94 0.4 -1.16 c0.1 0 0.12 -0.02 0.12 -0.06 s-0.02 -0.08 -0.02 -0.14 c0 -0.12 0.04 -0.24 0.18 -0.4 l0 0.02 c0.04 0 0.02 -0.44 0.18 -0.44 l0.08 -0.38 l0.12 -0.1 l0 -0.32 l0.16 -0.12 l0 -0.34 s0.12 -0.04 0.12 -0.08 c-0.02 0 -0.04 -0.04 -0.04 -0.06 c0 -0.26 0.5 -1.02 0.5 -1.54 l0.1 -0.08 l0 -0.32 c0 0.02 0.02 0.02 0.02 0.02 c0.28 0 -0.1 -1.16 0.94 -1.16 c0.08 0 0.44 0.22 0.44 0.52 c0.08 0.08 -0.08 0.28 0.28 0.94 c0.02 0 0.5 1.3 0.5 1.64 c0.18 0 0.06 0.4 0.52 1.36 c0.12 0.54 0.34 0.52 0.34 0.76 l0 -0.02 s0.1 0.64 0.18 0.64 l-0.02 0 c0 0.08 0.48 0.6 0.48 1.22 c0.12 0.58 0.32 0.34 0.32 0.84 l-0.02 -0.02 c0 0.04 0.32 0.46 0.32 0.72 c-0.02 0 -0.04 0 -0.04 0.02 c0 0.08 0.22 0.36 0.22 0.46 c0 0.02 -0.02 0.02 -0.02 0.04 c0 0.04 0.2 0.2 0.2 0.56 c0.08 0.7 0.42 0.74 0.42 1.18 c-0.02 0.04 -0.04 0.06 -0.04 0.08 c0 0.1 0.32 0.1 0.32 0.56 c0 1.14 0.78 1.4 0.78 2.2 c0.08 0.64 0.46 0.86 0.52 0.9 l1.3 0 c0.08 0 0.2 0.06 0.26 0.1 l0 0.36 c-0.08 0.04 -0.14 0.12 -0.46 0.12 c-0.04 0 -1 -0.04 -1.4 -0.04 c-0.18 0 -0.34 0.04 -0.5 0.04 c-0.02 0 -0.34 -0.04 -0.38 -0.04 c-1.08 0 -1.76 0.06 -2.18 0.06 c-0.02 0 -0.02 -0.06 -0.34 -0.06 c-0.16 0 -0.2 0 -0.28 0.04 c-0.1 0 -0.18 -0.04 -0.22 -0.1 c-0.04 0 -0.12 0.02 -0.12 0.02 l0.04 0.04 l-0.04 0.04 c-0.66 0 -0.72 0 -0.86 -0.12 l0.04 -0.34 c0 -0.04 0.14 -0.12 0.22 -0.12 l1.5 0 c0.02 0.02 0.16 -0.1 0.16 -0.2 c0 -0.04 -0.32 -0.46 -0.32 -0.7 c0.04 -0.02 0.04 -0.02 0.04 -0.06 c0 -0.1 -0.34 -0.36 -0.34 -0.88 c0.02 0 0.02 0 0.02 -0.02 c0 -0.04 -0.22 -0.2 -0.22 -0.36 c0 -0.72 -0.32 -0.72 -0.32 -1.26 l0 0.02 c-0.04 0 -0.22 -0.5 -0.4 -0.5 c-1.34 0 -2.76 0.04 -4.38 0.04 c0 0.08 -0.16 0.12 -0.16 0.34 c-0.3 0.66 -0.34 0.56 -0.34 0.88 c-0.24 0.16 0.02 0.28 -0.26 0.62 c-0.16 1.1 -0.38 0.48 -0.38 1.22 l0 -0.02 c-0.04 0 -0.22 0.52 -0.24 0.52 c0 0.32 0.08 0.32 0.2 0.4 l1.6 0 c0.1 0 0.3 0.02 0.3 0.26 s-0.06 0.36 -0.42 0.36 c-0.06 0 -0.14 -0.04 -0.24 -0.04 c-0.22 0 -0.3 0.04 -0.4 0.04 c-0.04 0 -0.14 -0.04 -0.16 -0.04 l-1.42 0 c-0.04 0.04 -0.08 0.04 -0.12 0.04 c-0.06 0 -0.16 -0.02 -0.24 -0.08 c0 0 0.04 -0.04 0.04 -0.08 l-0.06 0 c-0.04 0 -0.06 0 -0.06 0.04 l0.02 0.04 c-0.02 0.08 -0.04 0.08 -0.16 0.08 c0 -0.26 0 -0.2 0.06 -0.28 c-0.02 -0.08 0.02 -0.18 -0.04 -0.22 c0 0.14 -0.06 0.24 -0.18 0.32 c0 0.04 0.06 0.08 0.1 0.1 c-0.08 0 -0.3 0.1 -0.34 0.16 c-0.36 0 -0.32 -0.08 -0.54 -0.08 z M139.376 19.92 l0 0.04 l0.1 0 c-0.06 -0.04 -0.08 -0.04 -0.1 -0.04 z M139.71599999999998 19.96 c0 -0.02 -0.02 -0.02 -0.04 -0.02 s-0.04 0 -0.04 0.02 s0.02 0.04 0.04 0.04 s0.04 -0.02 0.04 -0.04 z M139.83599999999998 19.92 c-0.02 0 -0.04 0.02 -0.04 0.04 s0.02 0.04 0.04 0.04 s0.02 -0.02 0.02 -0.04 s0 -0.04 -0.02 -0.04 z M140.27599999999998 19.88 c-0.12 0 -0.28 0.04 -0.32 0.08 c0.34 0 0.24 -0.02 0.32 -0.08 z M140.93599999999998 19.9 c0 0.02 0.16 0.04 0.18 0.06 l0.04 -0.04 c-0.1 -0.02 -0.2 -0.02 -0.22 -0.02 z M142.416 19.92 c0.26 0 0.66 0.04 0.76 0.04 c-0.22 0 -0.22 -0.22 -0.24 -0.32 c0.02 0 -0.16 0.04 -0.16 0.16 c-0.04 0 -0.02 -0.12 -0.18 -0.12 c0 0.14 -0.08 0.18 -0.18 0.24 z M143.33599999999998 19.92 l0.04 0.04 c0.02 0 0.14 -0.04 0.18 -0.04 l-0.22 0 z M140.576 19.9 c-0.02 0 -0.04 0.02 -0.04 0.04 c0 0 0.02 0.02 0.04 0.02 s0.02 -0.02 0.02 -0.02 c0 -0.02 0 -0.04 -0.02 -0.04 z M142.156 19.92 c0 0 -0.04 -0.02 -0.06 -0.02 c-0.04 0 -0.04 0.02 -0.04 0.02 c0 0.02 0 0.04 0.04 0.04 c0.02 0 0.06 -0.02 0.06 -0.04 z M147.076 19.88 c0.02 0.02 0.08 0.04 0.1 0.04 s0.12 -0.02 0.16 -0.04 l0 -0.24 s-0.04 -0.02 -0.06 -0.02 c-0.18 0 -0.2 0.04 -0.2 0.12 l0 0.14 z M152.49599999999998 19.9 c0.06 0 0.08 0.02 0.18 0.02 c0.02 0 0.12 -0.02 0.18 -0.02 l-0.36 0 z M153.456 19.9 l0 0.02 l0.02 -0.02 l-0.02 0 z M147.636 19.88 l-0.04 0.02 l0.06 0.02 z M149.136 19.88 c-0.02 0 -0.04 0.02 -0.04 0.02 s0.02 0.02 0.04 0.02 s0.02 -0.02 0.02 -0.02 s0 -0.02 -0.02 -0.02 z M151.876 19.88 c0.02 0.02 0.04 0.02 0.1 0.02 l0.38 0 c-0.02 -0.02 -0.06 -0.04 -0.1 -0.06 c-0.04 0.04 -0.1 0.04 -0.12 0.04 c-0.18 0 -0.14 -0.14 -0.18 -0.14 z M139.05599999999998 19.74 c0 0.12 0 0.1 0.04 0.14 l0.26 0 l0 -0.34 c-0.28 0.14 -0.3 0.08 -0.3 0.2 z M143.27599999999998 19.78 l0 0.1 c0.04 0 0.06 -0.04 0.06 -0.04 c-0.02 -0.12 -0.08 -0.12 -0.08 -0.22 c-0.08 0 -0.12 0.04 -0.12 0.06 c0.02 0.04 0.04 0.1 0.14 0.1 z M153.05599999999998 19.84 c-0.02 0 -0.02 0.02 -0.02 0.04 s0 0.02 0.02 0.02 s0.02 0 0.02 -0.02 s0 -0.04 -0.02 -0.04 z M139.596 19.62 c0 0.16 -0.02 0.2 -0.06 0.22 c0.12 0 0.22 0 0.22 -0.12 s-0.02 -0.1 -0.16 -0.1 z M141.71599999999998 19.8 l0 0.04 l0.04 0 z M142.076 19.72 l0.04 0.02 l0 -0.06 z M143.376 19.58 c0 0.02 0 0.06 0.02 0.06 c0 0 0.08 0 0.08 -0.06 c0 -0.04 -0.04 -0.04 -0.08 -0.06 c-0.02 0.02 -0.02 0.04 -0.02 0.06 z M152.516 19.62 c0 0.02 0.04 0.02 0.06 0.02 c0 -0.1 0 -0.1 -0.04 -0.12 c0 0 -0.02 0.06 -0.02 0.1 z M153.396 19.48 c-0.1 0.02 -0.08 0.06 -0.08 0.16 l0.16 -0.1 c0 -0.02 -0.06 -0.04 -0.08 -0.06 z M151.876 19.54 c-0.02 0 -0.04 0.02 -0.04 0.02 c0 0.02 0.02 0.02 0.04 0.02 s0.02 0 0.02 -0.02 c0 0 0 -0.02 -0.02 -0.02 z M140.896 19.48 l0 0.06 l0.04 -0.06 l-0.04 0 z M140.956 19.18 c0 0.02 0.02 0.3 0.2 0.3 c-0.04 -0.02 -0.1 -0.2 -0.1 -0.3 l0.04 -0.12 l-0.04 -0.04 c-0.08 0 -0.1 0.12 -0.1 0.16 z M141.696 18.24 c-0.06 0.04 -0.14 0.16 -0.14 0.32 c0.02 0.02 0.04 0.02 0.04 0.02 c0.08 0 0.1 -0.12 0.12 -0.18 c0 -0.02 -0.02 -0.18 -0.02 -0.16 z M141.596 17.72 c0 -0.02 -0.02 -0.02 -0.02 -0.02 c-0.02 0 -0.02 0 -0.02 0.02 s0 0.02 0.02 0.02 c0 0 0.02 0 0.02 -0.02 z M142.156 16.28 c-0.02 0 -0.04 0.02 -0.04 0.02 s0.02 0.02 0.04 0.02 l0.02 -0.02 z M147.83599999999998 16 c-0.02 0 -0.02 0.02 -0.02 0.04 s0 0.04 0.02 0.04 s0.02 -0.02 0.02 -0.04 s0 -0.04 -0.02 -0.04 z M142.33599999999998 15.84 c-0.02 0 -0.02 0.02 -0.02 0.04 s0 0.04 0.02 0.04 s0.02 -0.02 0.02 -0.04 s0 -0.04 -0.02 -0.04 z M142.33599999999998 15.42 c-0.02 0 -0.02 0.02 -0.02 0.02 c0 0.02 0 0.02 0.02 0.02 s0.02 0 0.02 -0.02 c0 0 0 -0.02 -0.02 -0.02 z M143.256 14.6 c0.06 0.24 0.08 0.26 0.22 0.34 c0.24 0 0.9 -0.04 2.72 -0.04 c0.16 0 0.24 0.06 0.64 0.06 c0.2 0 0.4 -0.06 0.4 -0.28 c0 -0.1 -0.26 -0.48 -0.26 -0.68 l0.02 0 c0 -0.04 -0.22 -0.22 -0.22 -0.44 c0 -0.74 -0.38 -0.66 -0.38 -1.12 c0.02 0.02 0.02 0.04 0.02 0.04 c-0.02 0 -0.38 -0.66 -0.38 -1.04 c0 -0.26 -0.36 -0.64 -0.36 -1.08 l0.02 0 c0 -0.04 -0.22 -0.24 -0.22 -0.48 c-0.18 -0.42 -0.2 -0.38 -0.36 -0.38 c-0.58 1.38 -0.54 1.4 -0.72 1.74 c0 -0.04 -0.02 0.64 -0.28 0.74 l0 -0.04 c-0.02 0 -0.22 1.14 -0.42 1.32 c0 0.26 -0.44 0.6 -0.44 1.34 z M142.856 14.04 c-0.02 0 -0.04 0.02 -0.04 0.04 s0.02 0.04 0.04 0.04 s0.02 -0.02 0.02 -0.04 s0 -0.04 -0.02 -0.04 z M143.316 12.719999999999999 c-0.02 0 -0.04 0.02 -0.04 0.04 c0 0 0.02 0.02 0.04 0.02 l0 -0.06 z M144.156 11.54 l0 0.02 l0.02 0 z M144.076 11.22 c-0.02 0 -0.04 0.02 -0.04 0.04 l0.04 0 l0.02 0 c0 -0.02 0 -0.04 -0.02 -0.04 z M144.156 10.7 c-0.02 0 -0.04 0.02 -0.04 0.02 c0 0.02 0.02 0.04 0.04 0.04 c0 0 0.02 -0.02 0.02 -0.04 z M144.696 9.34 c0 -0.02 -0.02 -0.02 -0.02 -0.02 c-0.02 0 -0.02 0 -0.02 0.02 s0 0.04 0.02 0.04 c0 0 0.02 -0.02 0.02 -0.04 z M144.756 9.28 l-0.02 0 c0 0.02 0.02 0.02 0.02 0.02 s0.02 0 0.02 -0.02 l-0.02 0 z M146.93599999999998 7.880000000000001 c-0.02 0 -0.02 0.02 -0.02 0.04 s0 0.04 0.02 0.04 s0.02 -0.02 0.02 -0.04 s0 -0.04 -0.02 -0.04 z M146.55599999999998 5.1 c0 0 -0.02 0.02 -0.02 0.04 l0.04 0 c0 -0.02 0 -0.04 -0.02 -0.04 z M146.036 5.0600000000000005 c-0.02 0 -0.02 0.02 -0.02 0.04 s0 0.04 0.02 0.04 s0.02 -0.02 0.02 -0.04 s0 -0.04 -0.02 -0.04 z M146.196 5.0600000000000005 l0.08 0.04 c0.16 0 0.1 0 0.16 -0.04 l-0.06 -0.08 c-0.08 0 -0.12 0.08 -0.18 0.08 z M160.32299999999998 20.1 c0 -0.04 0 -0.08 0.02 -0.12 c0 -0.04 -0.02 -0.08 -0.04 -0.08 c0 0.08 -0.1 0.16 -0.12 0.16 c-0.08 -0.08 -0.18 -0.16 -0.22 -0.26 c0 -0.66 1.82 -0.18 2.14 -0.52 l-0.04 -1.88 l0 -4.78 l0.04 -0.04 c0 -0.74 -0.08 -1.34 -0.08 -2 c0 -1.02 0.08 -2.7 0.08 -3.34 c0 -0.92 -0.02 -1.3 -0.26 -1.64 l-0.24 0 l0 0.08 c-1.16 0 -0.92 0.18 -1.38 0.38 c0.04 0 -0.5 0.06 -0.5 0.32 l0.02 0.02 c0 0.04 -0.46 0.04 -0.46 0.34 c-0.46 0 -0.96 1.26 -1.18 1.48 c0 0.18 -0.42 0.62 -0.42 1.02 l0 -0.02 s-0.02 0.76 -0.42 0.76 c-0.32 0 -0.44 0.02 -0.52 -0.22 c0 -1.58 0.24 -0.94 0.24 -4.56 c4.82 -0.24 9.5 -0.26 11.84 -0.26 c0.34 0 0.64 0.02 0.88 0.02 c0.1 0 0.38 -0.1 0.38 0.6 c0 0.16 0 0.12 -0.04 0.18 c0.08 0.38 -0.02 1.02 0.14 1.42 c-0.02 0.02 -0.06 0.2 -0.06 0.3 c0 0.32 0.18 1.2 0.18 1.94 c0 0.5 -0.16 0.52 -0.48 0.52 c-0.22 0 -0.64 -1.1 -0.74 -1.42 c0.18 0.02 -0.22 -0.02 -0.22 -0.4 c-0.46 -0.62 -0.3 -0.6 -0.68 -0.98 c-0.32 -0.64 -0.46 -0.4 -0.74 -0.7 l0 0.02 c0.02 0 -0.16 -0.38 -0.54 -0.38 c-0.02 -0.18 -0.24 -0.08 -0.32 -0.26 c-0.72 -0.04 -0.66 -0.24 -0.88 -0.24 l-0.06 0.02 c-0.42 0 -0.28 0 -0.4 -0.02 c-0.04 0 -0.08 0.02 -0.08 0.02 c0 0.02 0.02 0.04 0.02 0.04 c0 0.1 -0.22 0.04 -0.22 0.5 c0 0.74 0.06 2.58 0.06 4.62 l0 3.8 c0 0.04 -0.04 0.22 -0.04 0.24 c0 -0.02 0 0.1 0.04 0.16 c0 0.1 0.04 1.72 0.04 1.98 c0 0.52 -0.04 1.12 -0.04 1.52 c0 0.44 0.02 0.9 0.16 0.96 c0.98 0 1 -0.04 1.46 -0.04 c0.12 0 0.38 0.04 0.38 0.4 c0 0.14 -0.16 0.26 -0.28 0.34 c-0.18 0 -0.6 -0.16 -0.86 -0.16 c-0.12 0 -0.2 0.06 -0.28 0.06 c-0.16 -0.02 -0.32 -0.06 -0.44 -0.06 l-0.04 0.04 c-0.18 0 -0.4 0.06 -0.5 0.06 c-0.04 0 -0.1 -0.04 -0.16 -0.04 c-0.02 0 -0.08 0.02 -0.16 0.06 c-0.2 0 -0.42 0 -0.44 -0.06 l-1.04 0 s-0.04 0.06 -0.08 0.06 c0.08 -0.02 -0.12 0.06 -0.12 -0.06 c-0.16 0 -0.28 0.08 -0.48 0.08 c-0.14 0 -0.24 -0.02 -0.3 -0.1 l0.06 -0.04 l-0.34 0 c0 0.08 0 0.16 -0.04 0.2 l-0.04 -0.08 c-0.08 0 -0.08 0.1 -0.14 0.1 c-0.08 0 -0.2 -0.12 -0.22 -0.12 l0.08 -0.06 c0 -0.06 0 -0.08 -0.04 -0.1 l0 0.02 c-0.02 0 -0.04 -0.02 -0.08 -0.02 s-0.1 0.02 -0.12 0.1 l0.04 0.12 l-0.04 0.04 l-0.62 0 z M160.22299999999998 19.94 c-0.02 0 -0.04 0.02 -0.04 0.02 c0 0.02 0.02 0.02 0.04 0.02 s0.02 0 0.02 -0.02 c0 0 0 -0.02 -0.02 -0.02 z M162.003 19.9 c-0.02 0 -0.04 0.02 -0.04 0.04 s0.02 0.04 0.04 0.04 c0 0 0.02 -0.02 0.02 -0.04 s-0.02 -0.04 -0.02 -0.04 z M160.16299999999998 19.88 l0 0.02 l0.02 0 z M162.583 19.88 l-0.04 0.02 l0.08 0 z M162.38299999999998 19.88 c0 -0.02 -0.02 -0.02 -0.04 -0.02 s-0.04 0 -0.04 0.02 s0.02 0.02 0.04 0.02 s0.04 0 0.04 -0.02 z M162.82299999999998 19.88 l0 -0.02 c-0.02 0 -0.02 0 -0.02 0.02 s0 0.02 0.02 0.02 l0 -0.02 z M162.963 19.8 c-0.02 0 -0.04 0.02 -0.04 0.04 s0.02 0.04 0.04 0.04 s0.02 -0.02 0.02 -0.04 s0 -0.04 -0.02 -0.04 z M165.183 19.8 l0 0.04 l0.1 0 c-0.02 -0.04 -0.06 -0.04 -0.1 -0.04 z M166.22299999999998 19.8 l-0.04 0.04 l0.04 0 l0 -0.04 z M166.423 19.78 c-0.04 0 -0.04 0.04 -0.04 0.06 l0.04 0 l0 -0.06 z M160.123 19.68 c0 0.04 0 0.08 0.06 0.08 s0.12 -0.02 0.12 -0.04 c0 -0.14 -0.02 -0.1 -0.12 -0.16 c-0.06 0.04 -0.06 0.04 -0.06 0.12 z M160.783 19.68 c-0.04 0.02 -0.1 0.04 -0.1 0.06 s0.04 0.02 0.06 0.02 c0.04 0 0.06 0 0.06 -0.04 z M161.16299999999998 19.64 c-0.06 0.04 -0.04 0.08 -0.04 0.12 l0.2 0 c-0.04 -0.06 -0.14 -0.06 -0.16 -0.12 z M161.843 19.76 c0 -0.02 -0.02 -0.02 -0.04 -0.02 s-0.04 0 -0.04 0.02 s0.02 0.02 0.04 0.02 s0.04 0 0.04 -0.02 z M166.063 19.76 l0.02 -0.04 z M162.283 19 c0 0 -0.02 0.02 -0.02 0.04 s0.02 0.04 0.02 0.04 s0.02 -0.02 0.02 -0.04 s-0.02 -0.04 -0.02 -0.04 z M164.963 15.559999999999999 c-0.02 0 -0.04 0.02 -0.04 0.04 s0.02 0.04 0.04 0.04 s0.02 -0.02 0.02 -0.04 s0 -0.04 -0.02 -0.04 z M162.22299999999998 12.14 c-0.02 0 -0.04 0.02 -0.04 0.04 s0.02 0.04 0.04 0.04 s0.02 -0.02 0.02 -0.04 s0 -0.04 -0.02 -0.04 z M157.363 9.8 c-0.02 0 -0.04 0.02 -0.04 0.04 c0 0 0.02 0.02 0.04 0.02 s0.02 -0.02 0.02 -0.02 c0 -0.02 0 -0.04 -0.02 -0.04 z M170.083 9.6 c-0.16 0.02 -0.16 0.2 -0.16 0.24 c0.12 -0.12 0.16 -0.12 0.16 -0.24 z M157.423 9.54 l0 0.14 c0.02 -0.02 0.02 -0.1 0.02 -0.14 l-0.02 0 z M169.563 9.52 l0 0.02 l0.08 0 z M170.083 9.12 l0 0.04 l0.02 0 z M157.063 7.84 c0 0 -0.02 0.04 -0.02 0.08 l0.02 0.04 c0.02 0 0.02 -0.04 0.02 -0.06 s0 -0.04 -0.02 -0.06 z M169.843 7.9 l-0.02 0.02 c0 0.02 0.02 0.04 0.02 0.04 c0.02 0 0.02 -0.02 0.02 -0.04 c0 0 0 -0.02 -0.02 -0.02 z M157.063 7.74 c0 0 -0.02 0 -0.02 0.02 s0.02 0.04 0.02 0.04 c0.02 0 0.02 -0.02 0.02 -0.04 s0 -0.02 -0.02 -0.02 z M157.123 6.1 c-0.04 0.02 -0.06 0.04 -0.08 0.08 c0.08 0 0.08 -0.02 0.08 -0.08 z M159.48299999999998 5.9399999999999995 c-0.02 0 -0.04 0 -0.04 0.02 s0.02 0.04 0.04 0.04 s0.02 -0.02 0.02 -0.04 s0 -0.02 -0.02 -0.02 z M159.563 5.74 c0 0 -0.02 0 0.04 0.06 c0.02 -0.02 0.04 -0.04 0.04 -0.06 l-0.08 0 z M160.16299999999998 5.640000000000001 c-0.02 0 -0.04 0.02 -0.04 0.04 s0.02 0.04 0.04 0.04 c0 0 0.02 -0.02 0.02 -0.04 s-0.02 -0.04 -0.02 -0.04 z M161.123 5.48 c0 0.02 -0.06 0.1 -0.1 0.12 l0.14 0 c0 -0.04 0.02 -0.08 -0.04 -0.12 z M161.963 5.48 l0 0.04 l0.04 -0.04 l-0.04 0 z M159.48299999999998 5.4 c-0.02 0 -0.04 0.02 -0.04 0.04 s0.02 0.04 0.04 0.04 s0.02 -0.02 0.02 -0.04 s0 -0.04 -0.02 -0.04 z M159.583 5.4 c-0.02 0.02 -0.02 0.02 -0.02 0.04 c0 -0.02 0.02 -0.04 0.02 -0.04 z M160.10299999999998 5.359999999999999 l0 0.08 l0.02 -0.04 z M160.623 5.4 c-0.02 0 -0.04 0.02 -0.04 0.02 c0 0.02 0.02 0.02 0.04 0.02 c0 0 0.02 0 0.02 -0.02 z M166.963 5.4 l0 0.04 s0.08 0.04 0.08 -0.04 l-0.08 0 z M157.063 5.4 l0.06 0 l-0.02 0 c0.06 0 0.14 -0.04 0.18 -0.04 c0 0.02 -0.04 -0.14 -0.08 -0.16 c-0.1 0 -0.1 0.14 -0.14 0.2 z M157.803 5.359999999999999 c-0.02 0 -0.02 0.02 -0.02 0.04 l0.04 0 c0 -0.02 0 -0.04 -0.02 -0.04 z M166.463 5.359999999999999 c0.04 0.04 0.08 0.04 0.12 0.04 c-0.02 -0.04 -0.06 -0.04 -0.12 -0.04 z M167.20299999999997 5.279999999999999 c-0.02 0 -0.02 0.02 -0.02 0.04 s0 0.04 0.02 0.04 s0.02 -0.02 0.02 -0.04 s0 -0.04 -0.02 -0.04 z M169.76299999999998 5.119999999999999 l0.04 0.04 l0 -0.04 l-0.04 0 z M175.58999999999997 19.72 l0 -0.1 l0.24 -0.24 l0.98 0 l0.08 0.04 l0.46 0.04 c0.08 0.04 0.18 -0.26 0.24 -0.26 l0 -2.42 c0 -0.02 -0.04 -0.26 -0.04 -0.28 c0 0 0.04 -0.48 0.04 -0.58 c0.04 -0.06 -0.06 0.08 -0.06 -0.32 c0 -0.04 0.06 -0.08 0.06 -0.16 c0 -0.14 -0.04 -0.22 -0.04 -0.32 c0 -0.04 0.04 -0.18 0.04 -0.26 l0 -1.26 c0 -0.18 -0.06 -0.5 -0.06 -0.74 l0.02 -1.72 c-0.02 -0.08 -0.02 -0.6 -0.02 -0.7 c0 -0.06 0.02 -0.52 0.02 -0.58 c0 -0.02 -0.02 -1.04 -0.02 -1.16 c0 -1.24 0.02 -1.46 0.02 -2 c0 -0.24 0 -0.76 -0.02 -0.92 l-0.12 -0.14 s-0.4 -0.02 -0.56 -0.02 c-0.26 0 -0.46 0.06 -0.7 0.06 c-0.22 -0.04 -0.44 0.12 -0.64 -0.34 c0 -0.18 0.04 -0.4 0.22 -0.44 c4.08 0 4.5 0.04 6.12 0.04 c3.88 0 3.66 -0.04 5.28 -0.04 c0.2 0 0.42 3.66 0.42 3.84 c0 0.02 0.02 0.02 0.02 0.04 c0 0.24 -0.36 0.42 -0.48 0.42 c-0.26 0 -0.4 -0.28 -0.48 -0.6 c0.08 0 -0.86 -1.54 -0.82 -1.46 c-0.26 -0.26 -0.28 -0.3 -0.44 -0.5 c0 -0.18 -0.86 -0.58 -0.96 -0.72 c0 0.02 -0.02 0.02 -0.02 0.02 c-0.06 0 -0.12 -0.24 -0.54 -0.24 c-0.56 0 -0.52 -0.08 -1.38 -0.08 l0 -0.04 l-0.62 0 l-0.04 0.04 l-0.26 0 l0.14 -0.04 c-0.46 0 -0.66 -0.06 -0.78 -0.06 c-0.18 0 -0.4 0.1 -0.4 0.68 c0 1.12 0.04 1.72 0.04 2 c0 0.3 -0.04 1.18 -0.04 1.3 c0 0.34 0.08 0.62 0.08 0.86 c-0.04 0 -0.08 0.14 -0.08 0.2 s0.08 0.44 0.08 0.62 c0 0.04 -0.04 0.1 -0.04 0.12 c0 0.06 -0.06 0.82 0.14 0.82 c0.46 0 0.8 -0.12 1.16 -0.12 l0 0.02 c0.06 0 0.24 -0.3 0.38 -0.3 c0.24 0 0.28 -0.08 0.54 -0.34 l0 0.02 c-0.02 0 0.34 -0.72 0.54 -0.96 c0.34 -0.16 -0.12 -1 0.88 -1 l0.06 0.04 c0 0.18 0.1 0.24 0.1 0.8 c-0.02 0.16 -0.04 0.68 -0.04 0.64 c0 0.22 0.04 0.56 0.04 0.84 c0 0.24 0 0.24 -0.04 0.36 c0 0.2 0.04 0.46 0.04 0.52 c0 0.26 -0.04 0.26 -0.04 0.46 c0 0.16 0.04 1.24 0.04 1.38 c0 0.08 -0.04 0.16 -0.04 0.28 l0 0.74 c0.02 0.02 -0.16 0.16 -0.26 0.16 c-0.64 0 -0.1 -0.12 -0.82 -1.42 c-0.56 -0.98 -0.74 -0.94 -1.06 -1.22 c0.02 0 -0.58 -0.2 -0.72 -0.2 l-0.06 -0.1 l-0.64 -0.02 c-0.3 0.16 -0.26 1 -0.26 0.68 c0 0.08 0.06 0.28 0.06 0.58 c0 0.14 -0.02 0.38 -0.06 0.6 c0 0.02 0.06 0.2 0.06 0.32 c0 0.2 -0.04 0.18 -0.04 0.26 c0 0.14 0.04 0.22 0.04 0.28 c-0.06 0.78 -0.08 2.18 -0.08 2.42 c0 1.26 -0.02 1.36 0.28 1.66 l0.86 0 c0.08 -0.02 0.18 -0.08 0.26 -0.08 c0.02 0 1.2 0.04 1.36 0.04 s0.02 -0.1 0.44 -0.1 c0.76 -0.3 0.72 -0.04 1.36 -0.54 c-0.02 0 -0.02 -0.02 -0.02 -0.02 c0 -0.06 0.5 -0.28 0.76 -0.6 c-0.02 0 -0.02 -0.02 -0.02 -0.02 c0 -0.3 0.88 -0.52 0.88 -1.24 c0 -0.08 0.36 -0.54 0.36 -0.66 c0.5 -1.26 0.18 -1.2 0.82 -1.2 c0.02 0 0.24 0 0.24 0.26 c0 1.3 -0.2 2.9 -0.2 3.8 c0 0.14 0.02 0.28 0.02 0.42 c0 0.24 -0.08 0.44 -0.56 0.44 l-7.7 0 c-1.16 0 -1.58 0.04 -3.72 0.04 c-0.38 -0.12 -0.28 -0.28 -0.28 -0.32 z M175.79 19.8 l0 -0.02 l0 0.06 c0 0.06 0.02 0.14 0.2 0.14 c0.04 0 0.1 0 0.16 -0.02 l0 -0.04 l-0.16 -0.18 c-0.02 0.04 -0.04 0.08 -0.08 0.1 c-0.02 0 -0.08 -0.02 -0.12 -0.06 l0 0.02 z M182.89 19.88 l0.02 0.04 c0.02 -0.02 0.02 -0.02 0.02 -0.08 z M182.10999999999999 19.84 c-0.06 0 -0.08 0 -0.1 0.04 l0.1 0 l0 -0.04 z M176.48999999999998 19.62 c0.04 0 0.12 0.04 0.14 0.04 c0.18 0 0.12 0 0.18 -0.04 c-0.04 0 -0.18 -0.04 -0.2 -0.04 c-0.08 0 -0.08 0 -0.12 0.04 z M187.46999999999997 19.62 c0.02 0.06 0.08 0.04 0.12 0.04 c-0.02 -0.04 -0.06 -0.04 -0.12 -0.04 z M178.02999999999997 19.62 c0 -0.02 -0.02 -0.02 -0.04 -0.02 s-0.04 0 -0.04 0.02 s0.02 0.04 0.04 0.04 s0.04 -0.02 0.04 -0.04 z M175.90999999999997 19.56 l0 0.02 l0.2 0 c-0.04 -0.02 -0.16 -0.02 -0.2 -0.02 z M177.74999999999997 16.9 l-0.02 -0.02 c-0.02 0 -0.02 0.02 -0.02 0.02 c0 0.02 0 0.04 0.02 0.04 c0 0 0.02 -0.02 0.02 -0.04 z M177.70999999999998 16.04 l0 0.08 c0.02 0 0.02 -0.02 0.02 -0.04 s0 -0.04 -0.02 -0.04 z M177.74999999999997 15.92 c0.02 0.04 0.06 0.04 0.12 0.04 c0 -0.04 0.02 -0.16 -0.04 -0.2 c0 0.04 -0.08 0.1 -0.08 0.16 z M177.86999999999998 15.54 c0 0.02 0 0.04 0.02 0.06 l0.02 -0.06 l-0.04 0 z M187.86999999999998 15.54 c-0.02 0 -0.04 0.02 -0.04 0.04 c0 0 0.02 0.02 0.04 0.02 s0.02 -0.02 0.02 -0.02 c0 -0.02 0 -0.04 -0.02 -0.04 z M187.96999999999997 15.5 c-0.02 0 -0.02 0.02 -0.02 0.04 c0 0 0 0.02 0.02 0.02 l0 -0.06 z M177.74999999999997 12.48 c-0.02 0 -0.04 0.02 -0.04 0.04 c0 0 0.02 0.02 0.04 0.02 s0.02 -0.02 0.02 -0.02 c0 -0.02 0 -0.04 -0.02 -0.04 z M177.89 12.48 c0 -0.02 0 -0.02 -0.02 -0.02 l0 0.04 c0.02 0 0.02 0 0.02 -0.02 z M177.74999999999997 11.6 l-0.02 -0.02 c-0.02 0 -0.02 0.02 -0.02 0.02 c0 0.02 0 0.04 0.02 0.04 c0 0 0.02 -0.02 0.02 -0.04 z M184.13 9.92 c0 -0.02 -0.02 -0.02 -0.04 -0.02 c0 0 -0.02 0 -0.02 0.02 s0.02 0.04 0.02 0.04 c0.02 0 0.04 -0.02 0.04 -0.04 z M186.96999999999997 8.96 c-0.02 0 -0.04 0.02 -0.04 0.04 c0 0 0.02 0.02 0.04 0.02 s0.02 -0.02 0.02 -0.02 c0 -0.02 0 -0.04 -0.02 -0.04 z M180.01 7.960000000000001 c-0.02 0.02 -0.02 0.06 -0.02 0.08 l0.22 0 c-0.02 -0.04 -0.1 -0.08 -0.2 -0.08 z M177.70999999999998 7.18 l0 0.08 c0.02 0 0.02 -0.02 0.02 -0.04 s0 -0.04 -0.02 -0.04 z M177.70999999999998 6.16 l0 0.08 c0.02 0 0.02 -0.02 0.02 -0.04 s0 -0.04 -0.02 -0.04 z M187.17 5.42 l0 0.2 l0.02 -0.1 c0 -0.04 0 -0.06 -0.02 -0.1 z M177.01 5.539999999999999 c-0.02 0 -0.02 0.02 -0.02 0.04 s0 0.04 0.02 0.04 s0.02 -0.02 0.02 -0.04 s0 -0.04 -0.02 -0.04 z M178.68999999999997 5.58 c0 -0.02 -0.02 -0.02 -0.02 -0.02 c-0.02 0 -0.02 0 -0.02 0.02 s0 0.04 0.02 0.04 c0 0 0.02 -0.02 0.02 -0.04 z M176.45 5.380000000000001 c-0.18 0 -0.08 0.14 -0.14 0.16 c0.12 0 0.14 -0.02 0.14 -0.06 c0 -0.02 -0.02 -0.04 -0.02 -0.06 s0.02 -0.02 0.02 -0.04 z M176.92999999999998 5.48 l0.06 0.04 l0.02 -0.04 l-0.04 -0.02 z M176.04999999999998 5.42 c-0.02 0 -0.02 0.02 -0.02 0.04 c0 0 0 0.02 0.02 0.02 s0.02 -0.02 0.02 -0.02 c0 -0.02 0 -0.04 -0.02 -0.04 z M176.24999999999997 5.34 l-0.14 0.04 l0.14 0 l0 -0.04 z M178.02999999999997 5.34 c-0.02 0 -0.04 0.02 -0.04 0.02 c0 0.02 0.02 0.02 0.04 0.02 c0 0 0.02 0 0.02 -0.02 z M180.04999999999998 5.34 l0 0.04 l0.02 0 z M176.35 5.34 l-0.04 0 c0 0.02 0 0.04 0.02 0.04 c0 0 0.02 -0.02 0.02 -0.04 z M176.80999999999997 5.32 c-0.04 0 -0.04 0.04 -0.04 0.04 c0.02 0 0.02 -0.02 0.04 -0.04 z M177.67 5.34 l-0.04 0 c0 0.02 0 0.04 0.02 0.04 c0 0 0.02 -0.02 0.02 -0.04 z M180.92999999999998 5.32 c-0.04 0 -0.08 0.02 -0.12 0.02 l0.14 0 z M175.74999999999997 5.32 c0 0 0 -0.02 -0.02 -0.02 l0 0.04 c0.02 0 0.02 0 0.02 -0.02 z M181.79 5.26 c0 0.08 0.02 0.04 0.04 0.06 c0 0 0.02 0 0.04 -0.02 l-0.04 -0.08 z M187.08999999999997 5.0600000000000005 l0 0.24 l0.04 0 c0 -0.06 0.02 -0.24 -0.04 -0.24 z M176.57 5.1 c-0.02 0 -0.04 0.02 -0.04 0.02 c0 0.02 0.02 0.02 0.04 0.02 s0.02 0 0.02 -0.02 c0 0 0 -0.02 -0.02 -0.02 z M175.90999999999997 5.1 l-0.02 -0.04 z M176.14999999999998 5.02 c-0.04 0.02 -0.06 0.04 -0.06 0.06 l0.02 0.02 l0.04 0 l0 -0.08 z"></path></g>
			</g>
		</svg>
	